<svg version="1.1" viewBox="0.0 0.0 425.3910761154856 384.95538057742783" fill="none" stroke="none" stroke-linecap="square" stroke-miterlimit="10" xmlns:xlink="http://www.w3.org/1999/xlink" xmlns="http://www.w3.org/2000/svg"><clipPath id="p.0"><path d="m0 0l425.39108 0l0 384.95538l-425.39108 0l0 -384.95538z" clip-rule="nonzero"/></clipPath><g clip-path="url(#p.0)"><path fill="#000000" fill-opacity="0.0" d="m0 0l425.39108 0l0 384.95538l-425.39108 0z" fill-rule="evenodd"/><path fill="#000000" fill-opacity="0.0" d="m0 -3.3858268l444.9134 0l0 62.015747l-444.9134 0z" fill-rule="evenodd"/><path fill="#000000" d="m20.890625 20.694174l-1.171875 0l0 -0.703125l-6.609375 0l0 0.9375l-1.171875 0l0 -12.609376l8.953125 0l0 12.375001zm-1.171875 -8.968751l0 -2.28125l-6.609375 0l0 2.28125l6.609375 0zm0 3.453125l0 -2.34375l-6.609375 0l0 2.34375l6.609375 0zm0 3.687501l0 -2.578125l-6.609375 0l0 2.578125l6.609375 0zm13.484375 -7.500001q-0.59375 1.640625 -1.875 3.109375l-0.875 -1.046875q1.984375 -2.0 2.515625 -5.6874995l1.234375 0.40624952q0.515625 0.234375 -0.0625 0.359375q-0.171875 0.8125 -0.46875 1.75l4.21875 0l-0.296875 7.968751q-0.0625 2.34375 -1.875 2.34375l-1.640625 0l-0.171875 -1.109375l1.515625 0q0.828125 0 0.890625 -1.0625l0.28125 -7.031251l-3.390625 0zm0.703125 5.453126q-0.828125 -1.171876 -1.8125 -2.109376l0.984375 -1.046875q1.171875 1.046875 1.875 2.046875l-1.046875 1.109376zm-6.921875 -6.562501q0.359375 -1.109375 0.65625 -2.5781245l1.40625 0.5312495q0.234375 0.234375 -0.1875 0.296875q-0.171875 0.75 -0.640625 1.75l2.171875 0l0 9.671876l-1.171875 0l0 -0.703125l-2.578125 0l0 1.171875l-1.171875 0l0 -10.140626l1.515625 0zm2.234375 1.109375l-2.578125 0l0 2.578125l2.578125 0l0 -2.578125zm0 3.703125l-2.578125 0l0 3.046876l2.578125 0l0 -3.046876zm23.3125 -1.828125l0 1.296875l-12.359375 0l0 -1.296875l12.359375 0zm4.515625 -0.40625l1.34375 0l0 1.296875l-1.34375 0l0 -1.296875zm0 5.390626l1.34375 0l0 1.296875l-1.34375 0l0 -1.296875zm17.0 0.875q0.28125 0 0.28125 -0.28125l0.0625 -1.359375l1.171875 0.59375l-0.0625 1.234375q-0.046875 1.34375 -1.109375 1.34375q-1.515625 0 -3.109375 -2.46875q-1.40625 1.359375 -3.6875 2.640625l-0.703125 -1.28125q2.28125 -1.0625 3.8125 -2.578125q-0.640625 -1.875001 -0.765625 -4.453126l-2.28125 0.046875l0 -0.8125l-1.875 0l0 2.875l1.984375 -0.46875l0 1.046875l-1.984375 0.59375l0 4.156251q0 0.9375 -0.765625 0.9375l-1.28125 0l-0.1875 -1.109375l0.828125 0q0.234375 0 0.234375 -0.234375l0 -3.515625l-1.703125 0.46875q-0.234375 0.578125 -0.46875 0l-0.234375 -1.234376l2.40625 -0.46875l0 -3.046875l-2.234375 0l0 -1.109375l2.234375 0l0 -2.9999995l1.109375 0q0.46875 0.0625 0.0625 0.359375l0 2.6406245l1.9375 0l0 0.8125l2.109375 -0.0625q-0.0625 -1.8125 -0.0625 -3.5624995l1.28125 0q0.59375 0 0.0625 0.46874952q0 1.453125 0.0625 2.984375l4.453125 -0.171875l0 1.109375l-4.390625 0.171875q0.109375 1.9375 0.46875 3.40625q0.875 -1.0625 1.515625 -2.46875l1.0625 0.765625q0.46875 0.296875 -0.1875 0.34375q-0.875 1.40625 -1.875 2.703126q1.0625 1.984375 1.828125 1.984375zm-0.59375 -8.546876q-0.640625 -0.9375 -1.40625 -1.640625l1.0 -0.703125q0.8125 0.703125 1.40625 1.578125l-1.0 0.765625zm6.390625 -1.46875q0.46875 0.0625 0.0625 0.359375l0 3.15625l3.453125 0l0 -4.6874995l1.109375 0q0.46875 0.0625 0.0625 0.35937452l0 4.328125l3.390625 0l0 -3.453125l1.125 0q0.46875 0.0625 0.046875 0.34375l0 4.75l-1.171875 0l0 -0.53125l-3.390625 0l0 5.046876l3.859375 0l0 -3.578126l1.125 0q0.46875 0.0625 0.046875 0.359375l0 4.984376l-1.171875 0l0 -0.65625l-9.078125 0l0 0.828125l-1.171875 0l0 -5.578126l1.109375 0q0.46875 0.0625 0.0625 0.359375l0 3.281251l4.046875 0l0 -5.046876l-3.453125 0l0 0.65625l-1.171875 0l0 -5.28125l1.109375 0zm22.96875 3.515625l0 -1.9375l-7.390625 0l0 1.9375l7.390625 0zm0 1.109375l-7.390625 0l0 2.0l7.390625 0l0 -2.0zm0 5.281251l0 -2.171875l-7.390625 0l0 2.171875l7.390625 0zm-4.921875 -9.437501l0.53125 -2.0468745l1.40625 0.296875q0.234375 0.23437452 -0.1875 0.28124952l-0.640625 1.46875l4.984375 0l0 11.078126l-1.171875 0l0 -0.53125l-7.390625 0l0 0.703125l-1.171875 0l0 -11.250001l3.640625 0zm12.015625 10.546876q-1.0625 0 -1.0625 -1.0l0 -6.265626l8.140625 0l0 -2.984375l-8.546875 0l0 -1.296875l9.90625 0l0 6.21875l-1.359375 0l0 -0.828125l-6.796875 0l0 4.406251q0 0.46875 0.421875 0.46875l7.546875 0q0.53125 0 0.65625 -0.765625l0.109375 -1.0l1.46875 0.296875l-0.234375 1.34375q-0.234375 1.40625 -1.578125 1.40625l-8.671875 0zm24.484375 0q-0.703125 -1.46875 -1.984375 -2.640625l0.984375 -0.875q1.171875 1.0625 2.109375 2.703125l-1.109375 0.8125zm-7.90625 -4.328126l-1.171875 0l0 -3.515625q-0.9375 1.40625 -2.34375 2.515625l-0.765625 -1.0q2.234375 -1.703125 3.046875 -3.390625l-2.515625 0l0 -1.125l2.578125 0l0 -1.7499995l1.109375 0q0.46875 0.0625 0.0625 0.34375l0 1.4062495l2.171875 0l0 1.125l-2.171875 0l0 0.75q1.515625 0.65625 2.40625 1.53125l-0.765625 1.046875q-0.59375 -0.703125 -1.640625 -1.34375l0 3.40625zm7.140625 -0.296875l-3.390625 0l0 0.34375l-1.0 0l0 -7.546875l5.390625 0l0 7.546875l-1.0 0l0 -0.34375zm-3.390625 -5.15625l3.390625 0l0 -1.109375l-3.390625 0l0 1.109375zm0 2.109375l3.390625 0l0 -1.171875l-3.390625 0l0 1.171875zm0 2.109375l3.390625 0l0 -1.171875l-3.390625 0l0 1.171875zm-2.0 1.046875q1.171875 0.89062595 2.0625 2.171876l-1.0625 0.828125q-0.703125 -1.234375 -1.8125 -2.171875l0.8125 -0.82812595zm-1.453125 0.89062595q0.46875 0.046875 0.046875 0.34375l0 2.40625q0 0.40625 0.359375 0.40625l3.75 0q0.46875 0 0.703125 -1.171875l1.171875 0.40625q-0.296875 1.890625 -1.34375 1.890625l-4.75 0q-1.0625 0 -1.0625 -1.0625l0 -3.21875l1.125 0zm-1.765625 0.75q0.359375 0.1875 -0.0625 0.296875q-0.40625 1.53125 -1.21875 2.9375l-1.125 -0.703125q0.9375 -1.46875 1.234375 -3.0l1.171875 0.46875zm24.4375 -0.28125q-1.9375 -2.171876 -4.109375 -3.468751l0.828125 -1.046875q2.28125 1.171875 4.328125 3.390625l-1.046875 1.125001zm-11.546875 -8.203126l12.3125 0l0 1.28125l-5.109375 0q-0.171875 0.59375 -0.515625 1.234375l0 9.500001l-1.359375 0l0 -7.515626q-1.984375 2.53125 -5.03125 3.875001l-0.828125 -1.343751q4.34375 -1.828125 6.28125 -5.75l-5.75 0l0 -1.28125zm26.484375 11.359376q-0.703125 -1.46875 -1.984375 -2.640625l0.984375 -0.875q1.171875 1.0625 2.109375 2.703125l-1.109375 0.8125zm-7.90625 -4.328126l-1.171875 0l0 -3.515625q-0.9375 1.40625 -2.34375 2.515625l-0.765625 -1.0q2.234375 -1.703125 3.046875 -3.390625l-2.515625 0l0 -1.125l2.578125 0l0 -1.7499995l1.109375 0q0.46875 0.0625 0.0625 0.34375l0 1.4062495l2.171875 0l0 1.125l-2.171875 0l0 0.75q1.515625 0.65625 2.40625 1.53125l-0.765625 1.046875q-0.59375 -0.703125 -1.640625 -1.34375l0 3.40625zm7.140625 -0.296875l-3.390625 0l0 0.34375l-1.0 0l0 -7.546875l5.390625 0l0 7.546875l-1.0 0l0 -0.34375zm-3.390625 -5.15625l3.390625 0l0 -1.109375l-3.390625 0l0 1.109375zm0 2.109375l3.390625 0l0 -1.171875l-3.390625 0l0 1.171875zm0 2.109375l3.390625 0l0 -1.171875l-3.390625 0l0 1.171875zm-2.0 1.046875q1.171875 0.89062595 2.0625 2.171876l-1.0625 0.828125q-0.703125 -1.234375 -1.8125 -2.171875l0.8125 -0.82812595zm-1.453125 0.89062595q0.46875 0.046875 0.046875 0.34375l0 2.40625q0 0.40625 0.359375 0.40625l3.75 0q0.46875 0 0.703125 -1.171875l1.171875 0.40625q-0.296875 1.890625 -1.34375 1.890625l-4.75 0q-1.0625 0 -1.0625 -1.0625l0 -3.21875l1.125 0zm-1.765625 0.75q0.359375 0.1875 -0.0625 0.296875q-0.40625 1.53125 -1.21875 2.9375l-1.125 -0.703125q0.9375 -1.46875 1.234375 -3.0l1.171875 0.46875zm15.875 3.875q-1.40625 -1.578125 -2.921875 -2.578125l0.875 -1.171875q1.875 1.109375 3.109375 2.515625l-1.0625 1.234375zm19.695312 -1.640625l-0.171875 1.109375l-7.5 0q-2.0 0 -3.171875 -1.578125q-0.703125 1.109375 -1.75 1.8125l-0.765625 -1.28125q1.046875 -0.53125 1.875 -1.171875l0 -3.640626l-1.8125 0l0 -1.28125l3.15625 0l0 4.859376q0.875 1.171875 2.40625 1.171875l7.734375 0zm-2.046875 -1.8125q0.234375 0 0.234375 -0.234375l0 -5.109376l-2.578125 0l0 0.890625l1.921875 0l0 0.9375l-1.921875 0l0 0.875l1.515625 0l0 2.750001l-3.046875 0l0 0.59375l-1.0 0l0 -3.343751l1.53125 0l0 -0.875l-2.0 0l0 -0.9375l2.0 0l0 -0.890625l-2.640625 0l0 6.453126l-1.171875 0l0 -7.390626l2.171875 0l-0.828125 -1.578125l-1.75 0l0 -1.109375l3.921875 0l0 -1.2343745l1.296875 0q0.578125 0.125 0.046875 0.46875l0 0.7656245l4.171875 0l0 1.109375l-1.828125 0l-1.171875 1.578125l2.53125 0l0 6.453126q0 0.9375 -0.9375 0.9375l-1.0625 0l-0.0625 -1.109375l0.65625 0zm-3.875 -1.937501l0 1.343751l2.046875 0l0 -1.343751l-2.046875 0zm2.515625 -5.921875l-3.09375 0l0.703125 1.578125l1.453125 0l0.9375 -1.578125zm-8.484375 -2.0468745q0.9375 0.8124995 1.8125 2.0468745l-1.171875 1.109375q-0.765625 -1.34375 -1.703125 -2.21875l1.0625 -0.9374995zm25.71875 9.203125q-1.9375 -2.171876 -4.109375 -3.468751l0.828125 -1.046875q2.28125 1.171875 4.328125 3.390625l-1.046875 1.125001zm-11.546875 -8.203126l12.3125 0l0 1.28125l-5.109375 0q-0.171875 0.59375 -0.515625 1.234375l0 9.500001l-1.359375 0l0 -7.515626q-1.984375 2.53125 -5.03125 3.875001l-0.828125 -1.343751q4.34375 -1.828125 6.28125 -5.75l-5.75 0l0 -1.28125zm27.71875 10.718751l-0.171875 1.109375l-7.5 0q-2.0 0 -3.171875 -1.578125q-0.703125 1.109375 -1.75 1.8125l-0.765625 -1.28125q1.046875 -0.53125 1.875 -1.171875l0 -3.640626l-1.8125 0l0 -1.28125l3.15625 0l0 4.859376q0.875 1.171875 2.40625 1.171875l7.734375 0zm-2.046875 -1.8125q0.234375 0 0.234375 -0.234375l0 -5.109376l-2.578125 0l0 0.890625l1.921875 0l0 0.9375l-1.921875 0l0 0.875l1.515625 0l0 2.750001l-3.046875 0l0 0.59375l-1.0 0l0 -3.343751l1.53125 0l0 -0.875l-2.0 0l0 -0.9375l2.0 0l0 -0.890625l-2.640625 0l0 6.453126l-1.171875 0l0 -7.390626l2.171875 0l-0.828125 -1.578125l-1.75 0l0 -1.109375l3.921875 0l0 -1.2343745l1.296875 0q0.578125 0.125 0.046875 0.46875l0 0.7656245l4.171875 0l0 1.109375l-1.828125 0l-1.171875 1.578125l2.53125 0l0 6.453126q0 0.9375 -0.9375 0.9375l-1.0625 0l-0.0625 -1.109375l0.65625 0zm-3.875 -1.937501l0 1.343751l2.046875 0l0 -1.343751l-2.046875 0zm2.515625 -5.921875l-3.09375 0l0.703125 1.578125l1.453125 0l0.9375 -1.578125zm-8.484375 -2.0468745q0.9375 0.8124995 1.8125 2.0468745l-1.171875 1.109375q-0.765625 -1.34375 -1.703125 -2.21875l1.0625 -0.9374995zm20.734375 0.5781245q2.28125 2.875 6.03125 4.046875l-0.578125 1.34375q-3.984375 -1.453125 -6.265625 -4.625q-1.0625 2.171875 -2.9375 3.453125l6.5 0l0 1.125l-6.5625 0l0 -1.0625q-1.046875 0.875 -2.453125 1.53125l-0.828125 -1.125q4.28125 -1.984375 5.625 -5.3281245l1.53125 0.296875q0.40625 0.062499523 -0.0625 0.34374952zm-3.6875 12.546876l-1.171875 0l0 -5.796876l8.734375 0l0 5.625001l-1.171875 0l0 -0.640625l-6.390625 0l0 0.8125zm0 -1.9375l6.390625 0l0 -2.75l-6.390625 0l0 2.75zm11.3125 -4.921876q1.75 -2.34375 2.625 -6.4999995l1.171875 0.234375q0.53125 0.234375 -0.046875 0.34374952q-0.46875 2.0 -1.0 3.46875q0.703125 0.046875 0.171875 0.34375l0 9.093751l-1.171875 0l0 -7.453126q-0.578125 1.0625 -1.234375 1.875l-0.515625 -1.40625zm6.5 -6.1562495q0.46875 0.0625 0.0625 0.35937452l0 2.28125l2.109375 0l0 1.109375l-2.109375 0l0 2.34375l1.34375 0l0 5.156251l-2.75 0l0 0.953125l-1.171875 0l0 -6.109376l1.40625 0l0 -2.34375l-1.875 0l0 -1.109375l1.875 0l0 -2.6406245l1.109375 0zm3.6875 4.1718745q0.0625 2.28125 0.703125 4.265626q0.59375 -1.875001 0.703125 -4.265626l-1.40625 0zm0.765625 -3.640625q-0.234375 1.46875 -0.59375 2.515625l3.40625 0l0 1.125l-1.171875 0q-0.0625 3.15625 -1.0625 5.390626q0.828125 1.109375 2.296875 1.984375l-0.46875 1.359375q-1.703125 -1.125 -2.46875 -2.234375q-1.0 1.53125 -2.921875 2.46875l-0.46875 -1.234375q1.75 -0.765625 2.8125 -2.296875q-0.828125 -1.921876 -1.0 -4.031251q-0.359375 0.984375 -0.703125 1.40625l-0.640625 -1.0q1.40625 -2.46875 1.921875 -5.9843745l1.234375 0.23437452q0.234375 0.234375 -0.171875 0.296875zm-5.796875 9.609376l1.578125 0l0 -2.921876l-1.578125 0l0 2.921876z" fill-rule="nonzero"/><path fill="#000000" d="m256.62665 19.694174l0 -10.484376l2.078125 0l2.484375 7.421876q0.34375 1.03125 0.5 1.546875q0.1875 -0.5625 0.5625 -1.671875l2.515625 -7.296876l1.859375 0l0 10.484376l-1.328125 0l0 -8.781251l-3.046875 8.781251l-1.265625 0l-3.03125 -8.937501l0 8.937501l-1.328125 0zm12.193176 0l0 -10.484376l1.390625 0l0 9.250001l5.15625 0l0 1.234375l-6.546875 0z" fill-rule="nonzero"/><path fill="#000000" d="m287.9205 14.366048l-1.640625 0l0 -1.125l1.640625 0l0 -3.6875l-1.234375 0l0 -1.109375l6.5 0l0 1.109375l-1.34375 0l0 3.6875l1.8125 0l0 1.125l-1.8125 0l0 6.437501l-1.171875 0l0 -6.437501l-1.578125 0l0 0.984375q0 3.640626 -3.578125 5.640626l-0.8125 -1.171875q3.21875 -1.59375 3.21875 -4.578126l0 -0.875zm-7.390625 -4.75l0 -1.109375l5.515625 0l0 1.109375l-2.46875 0q-0.109375 1.46875 -0.703125 3.046875l2.9375 0l0 5.968751l-2.9375 0l0 1.1875l-1.171875 0l0 -5.171876q-0.28125 0.65625 -0.875 1.0625l-0.640625 -1.234375q1.875 -1.640625 2.21875 -4.859375l-1.875 0zm10.140625 -0.0625l-1.578125 0l0 3.6875l1.578125 0l0 -3.6875zm-6.03125 4.21875l-1.765625 0l0 3.750001l1.765625 0l0 -3.750001zm22.90625 -1.703125q-0.46875 1.59375 -1.515625 1.59375l-2.40625 0q-1.0625 0 -1.0625 -1.0l0 -2.46875l-2.046875 0l0 0.53125q0 2.875 -3.625 3.515625l-0.296875 -1.234375q2.75 -0.515625 2.75 -2.28125l0 -0.53125l-2.75 0l0 1.703125l-1.171875 0l0 -2.8125l5.6875 0l0 -1.5781245l1.28125 0q0.59375 0.109375 0.0625 0.46875l0 1.1093745l5.453125 0l0 2.40625l-1.171875 0l0 -1.296875l-3.0 0l0 1.875q0 0.46875 0.421875 0.46875l1.515625 0q0.359375 0 0.46875 -0.28125l0.234375 -0.59375l1.171875 0.40625zm-3.578125 4.171876l-2.28125 0q-0.578125 3.75 -5.796875 4.859375l-0.359375 -1.40625q4.21875 -0.765625 4.921875 -3.453125l-3.984375 0l0 -1.125001l4.171875 0q0.046875 -0.9375 0.046875 -1.875l1.296875 0.0625q0.171875 0.171875 -0.125 0.359375q0 0.578125 -0.046875 1.453125l3.328125 0l0 3.937501q0 0.46875 0.421875 0.46875l0.8125 0q0.59375 0 0.703125 -0.703125l0.171875 -1.296875l1.296875 0.359375l-0.171875 1.171875q-0.234375 1.578125 -1.359375 1.578125l-1.984375 0q-1.0625 0 -1.0625 -1.0l0 -3.390625z" fill-rule="nonzero"/><path fill="#000000" d="m20.890625 38.694176l-1.171875 0l0 -0.703125l-6.609375 0l0 0.9375l-1.171875 0l0 -12.609375l8.953125 0l0 12.375zm-1.171875 -8.96875l0 -2.28125l-6.609375 0l0 2.28125l6.609375 0zm0 3.453125l0 -2.34375l-6.609375 0l0 2.34375l6.609375 0zm0 3.6875l0 -2.578125l-6.609375 0l0 2.578125l6.609375 0zm13.484375 -7.5q-0.59375 1.640625 -1.875 3.109375l-0.875 -1.046875q1.984375 -2.0 2.515625 -5.6875l1.234375 0.40625q0.515625 0.234375 -0.0625 0.359375q-0.171875 0.8125 -0.46875 1.75l4.21875 0l-0.296875 7.96875q-0.0625 2.34375 -1.875 2.34375l-1.640625 0l-0.171875 -1.109375l1.515625 0q0.828125 0 0.890625 -1.0625l0.28125 -7.03125l-3.390625 0zm0.703125 5.453125q-0.828125 -1.171875 -1.8125 -2.109375l0.984375 -1.046875q1.171875 1.046875 1.875 2.046875l-1.046875 1.109375zm-6.921875 -6.5625q0.359375 -1.109375 0.65625 -2.578125l1.40625 0.53125q0.234375 0.234375 -0.1875 0.296875q-0.171875 0.75 -0.640625 1.75l2.171875 0l0 9.671875l-1.171875 0l0 -0.703125l-2.578125 0l0 1.171875l-1.171875 0l0 -10.140625l1.515625 0zm2.234375 1.109375l-2.578125 0l0 2.578125l2.578125 0l0 -2.578125zm0 3.703125l-2.578125 0l0 3.046875l2.578125 0l0 -3.046875zm22.09375 -5.453125l0 1.28125l-9.609375 0l0 -1.28125l9.609375 0zm1.453125 7.96875l0 1.28125l-12.65625 0l0 -1.28125l12.65625 0zm4.28125 -4.75l1.34375 0l0 1.296875l-1.34375 0l0 -1.296875zm0 5.390625l1.34375 0l0 1.296875l-1.34375 0l0 -1.296875zm17.984375 -10.140625q0.46875 0.0625 0.0625 0.359375l0 11.421875q0 0.9375 -0.9375 0.9375l-1.171875 0l-0.171875 -1.109375l0.875 0q0.234375 0 0.234375 -0.234375l0 -11.375l1.109375 0zm-3.859375 9.84375l0 -8.484375l1.109375 0q0.46875 0.046875 0.0625 0.34375l0 8.140625l-1.171875 0zm-8.09375 -2.34375l2.703125 0l0 -1.6875l1.109375 0q0.46875 0.046875 0.0625 0.34375l0 1.34375l2.75 0l0 1.125l-2.75 0l0 2.046875l3.15625 -0.46875l0.1875 1.0l-7.03125 1.28125q-0.0625 0.421875 -0.296875 0.1875l-0.46875 -1.421875l3.28125 -0.40625l0 -2.21875l-2.703125 0l0 -1.125zm0.1875 -1.875q-0.0625 0.421875 -0.296875 0.1875l-0.359375 -1.40625l1.53125 -0.0625l1.109375 -2.9375l-2.578125 0l0 -1.109375l7.390625 0l0 1.109375l-3.46875 0l-1.28125 2.875l2.8125 -0.234375q-0.40625 -0.578125 -1.109375 -1.28125l0.9375 -0.65625q1.40625 1.296875 2.28125 2.8125l-1.0625 0.765625l-0.46875 -0.703125l-5.4375 0.640625zm26.015625 -2.34375q-0.421875 -0.46875 -1.0625 -0.984375l0.703125 -0.65625q0.640625 0.46875 1.0625 0.9375l-0.703125 0.703125zm-4.875 6.6875l0 -0.59375l1.125 0q0.46875 0.0625 0.046875 0.359375l0 0.234375l4.21875 0l0 0.9375l-4.21875 0l0 0.9375l5.28125 0l0 0.9375l-11.65625 0l0 -0.9375l5.203125 0l0 -0.9375l-3.75 0l0 -0.9375l3.75 0zm2.34375 -6.453125l0 -2.21875l0.9375 0q0.46875 0.0625 0.0625 0.34375l0 1.875l2.640625 0l0 0.9375l-2.578125 0q0.640625 2.0 2.875 3.578125l-0.65625 1.0q-1.8125 -1.46875 -2.515625 -2.8125q-0.578125 1.875 -1.75 2.875l-0.765625 -0.890625q1.640625 -1.34375 1.75 -3.75l-1.640625 0l0 -0.9375l1.640625 0zm-5.625 3.171875l0 0.53125l2.640625 0l0 -0.53125l-2.640625 0zm0 -1.171875l0 0.46875l2.640625 0l0 -0.46875l-2.640625 0zm3.640625 -0.703125l0 3.390625q0 1.0 -0.875 1.0l-0.65625 0l-0.234375 -0.9375l0.46875 0q0.296875 0 0.296875 -0.234375l0 -0.109375l-2.640625 0l0 1.28125l-0.984375 0l0 -4.390625l4.625 0zm-0.296875 -0.59375l-4.21875 0l0 -2.859375l4.21875 0l0 2.859375zm-3.21875 -1.21875l0 0.515625l2.21875 0l0 -0.515625l-2.21875 0zm0 -0.9375l0 0.515625l2.21875 0l0 -0.515625l-2.21875 0zm-3.109375 -2.296875l12.3125 0l0 1.125l-11.140625 0l0 7.546875q0 2.109375 -1.28125 4.578125l-0.890625 -1.0q1.0 -1.984375 1.0 -3.75l0 -8.5zm14.9375 11.4375q4.640625 -1.59375 4.921875 -7.09375l-4.21875 0l0 -1.296875l4.28125 0l0 -2.984375l1.296875 0q0.578125 0.125 0.046875 0.46875l0 2.515625l5.15625 0q-0.109375 4.6875 -0.234375 7.03125q-0.109375 2.359375 -1.75 2.359375l-2.34375 0l-0.234375 -1.296875l1.984375 0q0.9375 0 1.0 -0.9375q0.125 -1.703125 0.234375 -5.859375l-3.859375 0q0 6.328125 -5.625 8.5l-0.65625 -1.40625zm14.359375 -2.0q2.046875 -3.046875 2.578125 -6.625l1.40625 0.359375q0.46875 0.171875 -0.0625 0.34375q-0.703125 3.515625 -2.625 6.75l-1.296875 -0.828125zm10.015625 -6.625q2.109375 2.8125 3.234375 5.984375l-1.46875 0.640625q-1.0625 -3.28125 -2.875 -6.03125l1.109375 -0.59375zm-4.328125 8.5q0.234375 0 0.234375 -0.234375l0 -10.65625l1.28125 0q0.59375 0.109375 0.0625 0.46875l0 10.953125q0 0.765625 -0.765625 0.765625l-1.640625 0l-0.46875 -1.296875l1.296875 0zm21.90625 -5.921875l0 1.296875l-12.359375 0l0 -1.296875l12.359375 0zm8.796875 4.6875q0.578125 1.234375 0.765625 2.171875l-0.9375 0.296875q-0.234375 -1.109375 -0.765625 -2.28125l0.9375 -0.1875zm-1.578125 0.1875q0.28125 1.109375 0.515625 2.28125l-0.984375 0.234375q-0.234375 -1.296875 -0.46875 -2.40625l0.9375 -0.109375zm-1.640625 0.171875q0.171875 1.34375 0.234375 2.34375l-1.0625 0q0 -0.875 -0.0625 -2.34375l0.890625 0zm-3.234375 2.40625q0.53125 -1.125 0.828125 -2.53125l0.875 0.1875q-0.296875 1.703125 -0.703125 2.640625l-1.0 -0.296875zm7.328125 -4.28125l0 0.9375l-6.734375 0.40625q-0.296875 0.53125 -0.40625 -0.0625l-0.234375 -1.046875l3.09375 -0.0625l0 -1.234375l-2.578125 0l0 -0.9375l2.578125 0l0 -0.984375l-1.28125 0l-1.296875 0l0 -5.515625l6.28125 0l0 5.515625l-2.703125 0l0 0.984375l2.75 0l0 0.9375l-2.75 0l0 1.171875l3.28125 -0.109375zm-5.21875 -4.578125q-0.109375 -1.046875 -0.34375 -2.15625l0.640625 -0.1875q0.296875 1.171875 0.359375 2.234375l-0.65625 0.109375zm3.28125 -1.875q-0.109375 0.890625 -0.40625 1.828125l-0.703125 -0.0625q0.296875 -1.0625 0.40625 -2.171875l0.703125 0.0625q0.421875 0.109375 0 0.34375zm3.984375 4.28125l0 -6.5l1.125 0q0.46875 0.0625 0.046875 0.34375l0 2.0625l2.8125 0l0 1.109375l-2.8125 0l0 2.984375l2.578125 0l0 6.390625l-1.171875 0l0 -0.8125l-2.984375 0l0 1.046875l-1.171875 0l0 -6.625l1.578125 0zm-3.625 -1.75l0 -3.640625l-1.703125 0l0 3.640625l1.703125 0zm-2.703125 -3.640625l-1.578125 0l0 3.640625l1.578125 0l0 -3.640625zm8.90625 9.84375l0 -3.34375l-2.984375 0l0 3.34375l2.984375 0zm11.375 -7.328125q-0.59375 1.640625 -1.875 3.109375l-0.875 -1.046875q1.984375 -2.0 2.515625 -5.6875l1.234375 0.40625q0.515625 0.234375 -0.0625 0.359375q-0.171875 0.8125 -0.46875 1.75l4.21875 0l-0.296875 7.96875q-0.0625 2.34375 -1.875 2.34375l-1.640625 0l-0.171875 -1.109375l1.515625 0q0.828125 0 0.890625 -1.0625l0.28125 -7.03125l-3.390625 0zm0.703125 5.453125q-0.828125 -1.171875 -1.8125 -2.109375l0.984375 -1.046875q1.171875 1.046875 1.875 2.046875l-1.046875 1.109375zm-6.921875 -6.5625q0.359375 -1.109375 0.65625 -2.578125l1.40625 0.53125q0.234375 0.234375 -0.1875 0.296875q-0.171875 0.75 -0.640625 1.75l2.171875 0l0 9.671875l-1.171875 0l0 -0.703125l-2.578125 0l0 1.171875l-1.171875 0l0 -10.140625l1.515625 0zm2.234375 1.109375l-2.578125 0l0 2.578125l2.578125 0l0 -2.578125zm0 3.703125l-2.578125 0l0 3.046875l2.578125 0l0 -3.046875zm19.796875 6.03125l-1.171875 0l0 -2.984375q-1.40625 1.578125 -3.5625 2.21875l-0.46875 -1.171875q2.8125 -0.765625 3.921875 -2.453125l-2.234375 0l0 -3.046875l6.328125 0l0 2.859375l0.9375 0.828125q0.0625 0.296875 -0.28125 0.171875q-1.0 0.59375 -1.828125 0.875q1.0625 0.703125 2.578125 1.0625l-0.40625 1.234375q-2.453125 -0.828125 -3.8125 -2.46875l0 2.875zm0.9375 -3.28125q0.46875 -0.234375 1.59375 -1.109375l-2.640625 0q0.46875 0.640625 1.046875 1.109375zm-5.734375 -5.796875l8.84375 0l0 0.9375l-8.84375 0l0 -0.9375zm-0.125 2.21875l-1.40625 0l0 3.28125l1.640625 -0.578125l0.234375 1.046875l-4.09375 1.703125q-0.0625 0.296875 -0.296875 0.125l-0.46875 -1.359375l1.8125 -0.53125l0 -3.6875l-1.40625 0l0 -1.109375l1.40625 0l0 -3.28125l-1.640625 0l0 -1.109375l4.40625 0l0 1.109375l-1.59375 0l0 3.28125l1.40625 0l0 1.109375zm6.75 0.359375l-4.34375 0l0 1.171875l4.34375 0l0 -1.171875zm1.578125 -3.28125l-7.5 0l0 -3.40625l7.5 0l0 3.40625zm-1.0 -2.46875l-1.171875 0l0 1.53125l1.171875 0l0 -1.53125zm-2.171875 0l-1.171875 0l0 1.53125l1.171875 0l0 -1.53125zm-2.15625 0l-1.171875 0l0 1.53125l1.171875 0l0 -1.53125zm12.59375 8.609375q-3.34375 1.0 -4.34375 1.296875q-0.171875 0.46875 -0.28125 0.0625l-0.359375 -1.234375q1.109375 -0.234375 2.0 -0.46875l0 -5.046875l-1.640625 0l0 -1.109375l1.640625 0l0 -2.984375l1.109375 0q0.46875 0.0625 0.0625 0.34375l0 2.640625l1.453125 0l0 0.46875l2.40625 0l-0.703125 -1.46875l-1.046875 0l0 -0.9375l2.921875 0l0 -1.578125l1.109375 0q0.46875 0.0625 0.0625 0.359375l0 1.21875l3.34375 0l0 0.9375l-1.46875 0l-0.640625 1.46875l2.875 0l0 0.9375l-8.859375 0l0 -0.296875l-1.453125 0l0 4.75q1.109375 -0.296875 1.8125 -0.46875l0 1.109375zm4.328125 0l-1.21875 0q-0.125 3.296875 -4.34375 3.46875l-0.296875 -1.171875q3.515625 -0.125 3.46875 -2.296875l-0.65625 0l-0.640625 0l0 -4.328125l6.5625 0l0 4.328125l-1.703125 0l0 1.765625q0 0.40625 0.53125 0.40625l0.640625 0q0.234375 0 0.359375 -0.34375l0.234375 -0.703125l1.234375 0.34375l-0.359375 1.0q-0.296875 0.828125 -1.34375 0.828125l-1.34375 0q-1.125 0 -1.125 -1.125l0 -2.171875zm-1.640625 -7.5l0.65625 1.46875l0.984375 0l0.53125 -1.46875l-2.171875 0zm-0.875 5.6875l0 0.875l4.21875 0l0 -0.875l-4.21875 0zm0 -1.578125l0 0.875l4.21875 0l0 -0.875l-4.21875 0zm8.96875 4.09375l1.34375 0l0 1.296875l-0.703125 1.578125l-0.640625 0l0.578125 -1.578125l-0.578125 0l0 -1.296875zm21.039062 0.9375q0.28125 0 0.28125 -0.28125l0.0625 -1.359375l1.171875 0.59375l-0.0625 1.234375q-0.046875 1.34375 -1.109375 1.34375q-1.515625 0 -3.109375 -2.46875q-1.40625 1.359375 -3.6875 2.640625l-0.703125 -1.28125q2.28125 -1.0625 3.8125 -2.578125q-0.640625 -1.875 -0.765625 -4.453125l-2.28125 0.046875l0 -0.8125l-1.875 0l0 2.875l1.984375 -0.46875l0 1.046875l-1.984375 0.59375l0 4.15625q0 0.9375 -0.765625 0.9375l-1.28125 0l-0.1875 -1.109375l0.828125 0q0.234375 0 0.234375 -0.234375l0 -3.515625l-1.703125 0.46875q-0.234375 0.578125 -0.46875 0l-0.234375 -1.234375l2.40625 -0.46875l0 -3.046875l-2.234375 0l0 -1.109375l2.234375 0l0 -3.0l1.109375 0q0.46875 0.0625 0.0625 0.359375l0 2.640625l1.9375 0l0 0.8125l2.109375 -0.0625q-0.0625 -1.8125 -0.0625 -3.5625l1.28125 0q0.59375 0 0.0625 0.46875q0 1.453125 0.0625 2.984375l4.453125 -0.171875l0 1.109375l-4.390625 0.171875q0.109375 1.9375 0.46875 3.40625q0.875 -1.0625 1.515625 -2.46875l1.0625 0.765625q0.46875 0.296875 -0.1875 0.34375q-0.875 1.40625 -1.875 2.703125q1.0625 1.984375 1.828125 1.984375zm-0.59375 -8.546875q-0.640625 -0.9375 -1.40625 -1.640625l1.0 -0.703125q0.8125 0.703125 1.40625 1.578125l-1.0 0.765625zm6.390625 -1.46875q0.46875 0.0625 0.0625 0.359375l0 3.15625l3.453125 0l0 -4.6875l1.109375 0q0.46875 0.0625 0.0625 0.359375l0 4.328125l3.390625 0l0 -3.453125l1.125 0q0.46875 0.0625 0.046875 0.34375l0 4.75l-1.171875 0l0 -0.53125l-3.390625 0l0 5.046875l3.859375 0l0 -3.578125l1.125 0q0.46875 0.0625 0.046875 0.359375l0 4.984375l-1.171875 0l0 -0.65625l-9.078125 0l0 0.828125l-1.171875 0l0 -5.578125l1.109375 0q0.46875 0.0625 0.0625 0.359375l0 3.28125l4.046875 0l0 -5.046875l-3.453125 0l0 0.65625l-1.171875 0l0 -5.28125l1.109375 0zm16.046875 12.015625q-1.40625 -1.578125 -2.921875 -2.578125l0.875 -1.171875q1.875 1.109375 3.109375 2.515625l-1.0625 1.234375zm9.9609375 -0.34375l0 -0.421875l-2.046875 0l0 0.65625l-1.0 0l0 -4.8125l4.046875 0l0 4.578125l-1.0 0zm2.53125 -12.71875l6.734375 0l0 12.0625q0 0.828125 -0.703125 0.828125l-1.40625 0l-0.234375 -1.109375l1.109375 0q0.234375 0 0.234375 -0.25l0 -10.421875l-4.75 0l0 6.671875q0 3.046875 -1.515625 5.109375l-0.875 -0.9375q1.40625 -1.9375 1.40625 -4.6875l0 -7.265625zm3.921875 5.03125l1.234375 0l0 0.9375l-3.515625 0l0 -0.9375l1.28125 0l0 -1.40625l-1.28125 0l0 -0.9375l1.28125 0l0 -1.171875l0.9375 0q0.46875 0.0625 0.0625 0.359375l0 0.8125l1.28125 0l0 0.9375l-1.28125 0l0 1.40625zm-8.5 6.328125l2.046875 0l0 -2.28125l-2.046875 0l0 2.28125zm-0.8125 -5.265625l3.859375 0l0 1.109375l-3.859375 0l0 -1.109375zm0 -6.15625l3.859375 0l0 1.109375l-3.859375 0l0 -1.109375zm4.625 2.046875l0 1.109375l-5.328125 0l0 -1.109375l5.328125 0zm-4.625 3.171875l0 -1.125l3.859375 0l0 1.125l-3.859375 0zm8.140625 6.328125l-1.0 0l0 -4.453125l3.109375 0l0 3.625l-2.109375 0l0 0.828125zm0 -3.515625l0 1.75l1.109375 0l0 -1.75l-1.109375 0zm18.8125 5.15625q-5.15625 -0.359375 -6.390625 -3.234375l-2.046875 0l0 1.59375l2.625 -0.359375l0.125 0.9375l-5.515625 0.890625q-0.046875 0.40625 -0.28125 0.171875l-0.421875 -1.296875l2.46875 -0.234375l0 -4.390625q-1.0 0.765625 -2.984375 1.515625l-0.53125 -1.109375q3.109375 -0.9375 4.328125 -2.6875l-3.859375 0l0 -0.9375l5.921875 0l0 -0.703125l-4.109375 0l0 -0.9375l4.109375 0l0 -0.65625l-5.390625 0l0 -0.9375l3.21875 0q-0.171875 -0.46875 -0.59375 -0.9375l1.125 -0.40625q0.640625 0.765625 0.875 1.34375l2.40625 0l0.8125 -1.40625l1.234375 0.359375q0.234375 0.234375 -0.171875 0.296875l-0.65625 0.75l3.640625 0l0 0.9375l-5.328125 0l0 0.65625l4.03125 0l0 0.9375l-4.03125 0l0 0.703125l5.90625 0l0 0.9375l-3.984375 0q1.0 1.578125 4.34375 2.515625l-0.46875 1.171875q-2.109375 -0.640625 -3.171875 -1.53125l0 2.8125l-2.515625 0q0.59375 0.765625 1.171875 1.0625q1.34375 -0.828125 2.34375 -1.703125l0.703125 0.828125q0.0625 0.28125 -0.296875 0.171875q-0.9375 0.640625 -1.8125 1.109375q0.9375 0.421875 3.453125 0.65625l-0.28125 1.109375zm-8.4375 -3.9375l4.6875 0l0 -0.75l-4.6875 0l0 0.75zm0 -1.453125l4.6875 0l0 -0.703125l-4.6875 0l0 0.703125zm4.796875 -1.40625q-0.640625 -0.703125 -1.0 -1.40625l-2.625 0q-0.59375 0.875 -1.234375 1.40625l1.875 0l0 -1.0l1.109375 0q0.46875 0.0625 0.0625 0.34375l0 0.65625l1.8125 0zm13.125 -6.921875q0.53125 0.0625 0.0625 0.359375l0 1.921875l1.234375 0l0.984375 -1.984375l1.125 0.234375q0.578125 0.109375 -0.0625 0.34375l-0.828125 1.40625l3.28125 0l0 2.765625l-1.171875 0l0 -1.828125l-10.25 0l0 1.875l-1.171875 0l0 -2.8125l2.9375 0q-0.421875 -0.75 -1.0 -1.453125l1.0 -0.53125q0.515625 0.578125 1.171875 1.640625l-0.703125 0.34375l2.28125 0l0 -2.28125l1.109375 0zm3.578125 13.484375l0 -0.640625l-8.203125 0l0 0.640625l-1.171875 0l0 -5.6875l10.546875 0l0 5.6875l-1.171875 0zm-8.203125 -3.640625l3.515625 0l0 -1.109375l-3.515625 0l0 1.109375zm0 2.046875l3.515625 0l0 -1.109375l-3.515625 0l0 1.109375zm4.6875 -2.046875l3.515625 0l0 -1.109375l-3.515625 0l0 1.109375zm0 2.046875l3.515625 0l0 -1.109375l-3.515625 0l0 1.109375zm3.109375 -4.859375l-7.390625 0l0 -2.875l7.390625 0l0 2.875zm-6.21875 -0.9375l5.046875 0l0 -1.0l-5.046875 0l0 1.0zm18.453125 5.453125q-0.703125 -1.234375 -1.171875 -1.765625l1.0 -0.703125q0.46875 0.53125 1.234375 1.703125l-1.0625 0.765625zm2.296875 0.828125q0.234375 0 0.234375 -0.25l0 -3.453125l-4.921875 0l0 -1.109375l4.921875 0l0 -1.53125l-5.578125 0l0 5.578125l-0.984375 0l0 -0.46875l-2.0 0l0 1.046875l-1.0 0l0 -10.78125l3.984375 0l0 3.515625l3.578125 0l0 -1.703125l-2.515625 0l0 -1.109375l2.515625 0l0 -1.984375l1.109375 0q0.46875 0.046875 0.0625 0.34375l0 1.640625l2.984375 0l0 1.109375l-2.984375 0l0 1.703125l4.109375 0l0 1.109375l-2.109375 0l0 1.53125l1.75 0l0 1.109375l-1.75 0l0 3.875q0 0.9375 -0.9375 0.9375l-1.234375 0l-0.234375 -1.109375l1.0 0zm-8.328125 -6.859375l2.0 0l0 -3.0l-2.0 0l0 3.0zm0 4.5l2.0 0l0 -3.390625l-2.0 0l0 3.390625zm22.859375 -0.703125q-3.515625 2.34375 -8.390625 3.578125l-0.515625 -1.171875q4.453125 -1.0 7.90625 -3.046875l-7.09375 1.109375q-0.0625 0.46875 -0.296875 0.234375l-0.46875 -1.578125l2.171875 -0.171875l0 -6.734375l2.8125 0l0.53125 -1.53125l1.28125 0.234375q0.234375 0.234375 -0.171875 0.296875l-0.578125 1.0l3.984375 0l0 5.5625q0.875 -0.640625 1.75 -1.875l0.875 0.9375q0.421875 0.46875 -0.28125 0.296875q-1.0625 1.171875 -2.34375 2.046875l0 4.046875q0 0.9375 -0.9375 0.9375l-1.828125 0l-0.171875 -1.109375l1.53125 0q0.234375 0 0.234375 -0.25l0 -2.8125zm0 -1.6875l0 -0.9375l-5.515625 0l0 1.515625l5.515625 -0.578125zm-5.515625 -3.046875l0 1.171875l5.515625 0l0 -1.171875l-5.515625 0zm0 -1.9375l0 1.0l5.515625 0l0 -1.0l-5.515625 0zm17.234375 1.703125l0 1.984375l-1.0 0l0 -1.046875l-4.15625 0l0 1.109375l-1.0 0l0 -2.046875l0.9375 0l0 -3.9375l4.28125 0l0 3.9375l0.9375 0zm-0.1875 2.984375l0 -0.9375l7.5625 0l0 0.9375l-7.5625 0zm4.109375 -5.453125l-0.875 0l0 1.109375l0.875 0l0 -1.109375zm-1.875 10.3125l-0.40625 -1.40625l-0.890625 0l0 -2.75l5.515625 0l0 2.75l-0.9375 0l-0.46875 1.40625l2.515625 0l0 0.9375l-7.609375 0l0 -0.9375l2.28125 0zm0.9375 0l0.9375 0l0.40625 -1.40625l-1.703125 0l0.359375 1.40625zm-1.234375 -2.34375l3.515625 0l0 -0.875l-3.515625 0l0 0.875zm-5.96875 -5.5l0.640625 0l0 -2.0l1.640625 0l0 -1.0l-2.28125 0l0 3.0zm1.453125 -1.296875l0 1.296875l0.828125 0l0 -1.296875l-0.828125 0zm-1.34375 4.21875l0 0.875l2.0 0l0 -0.875l-2.0 0zm0 1.8125l0 0.9375l2.0 0l0 -0.9375l-2.0 0zm0 4.40625l-1.0 0l0 -7.15625l3.984375 0l0 6.21875q0 0.9375 -0.75 0.9375l-0.828125 0l-0.234375 -0.9375l0.59375 0q0.234375 0 0.234375 -0.234375l0 -1.359375l-2.0 0l0 2.53125zm8.03125 -13.484375l0.765625 0q0.46875 0.0625 0.046875 0.40625l0 0.765625l1.875 0l0 4.34375l-6.265625 0l0 -4.34375l1.875 0l0 -1.171875l0.765625 0q0.46875 0.0625 0.0625 0.40625l0 0.765625l0.875 0l0 -1.171875zm-1.703125 1.875l-0.875 0l0 1.109375l0.875 0l0 -1.109375zm0 1.8125l-0.875 0l0 1.125l0.875 0l0 -1.125zm1.703125 0l-0.875 0l0 1.125l0.875 0l0 -1.125zm0.8125 0l0 1.125l0.890625 0l0 -1.125l-0.890625 0zm0.890625 -1.8125l-0.890625 0l0 1.109375l0.890625 0l0 -1.109375zm11.65625 2.046875q-0.59375 1.640625 -1.875 3.109375l-0.875 -1.046875q1.984375 -2.0 2.515625 -5.6875l1.234375 0.40625q0.515625 0.234375 -0.0625 0.359375q-0.171875 0.8125 -0.46875 1.75l4.21875 0l-0.296875 7.96875q-0.0625 2.34375 -1.875 2.34375l-1.640625 0l-0.171875 -1.109375l1.515625 0q0.828125 0 0.890625 -1.0625l0.28125 -7.03125l-3.390625 0zm0.703125 5.453125q-0.828125 -1.171875 -1.8125 -2.109375l0.984375 -1.046875q1.171875 1.046875 1.875 2.046875l-1.046875 1.109375zm-6.921875 -6.5625q0.359375 -1.109375 0.65625 -2.578125l1.40625 0.53125q0.234375 0.234375 -0.1875 0.296875q-0.171875 0.75 -0.640625 1.75l2.171875 0l0 9.671875l-1.171875 0l0 -0.703125l-2.578125 0l0 1.171875l-1.171875 0l0 -10.140625l1.515625 0zm2.234375 1.109375l-2.578125 0l0 2.578125l2.578125 0l0 -2.578125zm0 3.703125l-2.578125 0l0 3.046875l2.578125 0l0 -3.046875zm15.34375 -1.703125l0 -0.296875l-2.859375 0l0 7.96875l-1.171875 0l0 -13.0625l5.203125 0l0 5.390625l-1.171875 0zm0 -3.34375l0 -1.109375l-2.859375 0l0 1.109375l2.859375 0zm0 2.109375l0 -1.171875l-2.859375 0l0 1.171875l2.859375 0zm0.1875 6.734375l0 0.828125l-1.0 0l0 -5.21875l5.5625 0l0 4.859375l-1.0 0l0 -0.46875l-3.5625 0zm3.5625 -0.9375l0 -2.515625l-3.5625 0l0 2.515625l3.5625 0zm2.0 2.9375l-0.296875 -1.109375l1.171875 0q0.171875 0 0.171875 -0.1875l0 -6.5l-2.984375 0l0 0.359375l-1.171875 0l0 -5.453125l5.328125 0l0 11.890625q0 1.0 -0.9375 1.0l-1.28125 0zm1.046875 -11.953125l-2.984375 0l0 1.109375l2.984375 0l0 -1.109375zm0 3.21875l0 -1.171875l-2.984375 0l0 1.171875l2.984375 0zm5.625 3.578125q-0.046875 0.875 -0.109375 1.640625q0.640625 0.8125 1.109375 1.234375l0 -4.171875l-3.046875 0l0 -1.109375l6.5 0l0 1.109375l-2.453125 0l0 1.59375l1.984375 0l0 1.109375l-1.984375 0l0 2.046875q0.8125 0.53125 1.875 0.53125l7.375 0l-0.28125 1.109375l-7.09375 0q-2.34375 0 -4.15625 -2.21875q-0.46875 1.578125 -1.0 2.34375l-0.9375 -0.875q1.171875 -1.765625 1.171875 -4.875l1.171875 0.171875q0.171875 0.1875 -0.125 0.359375zm3.75 2.6875q1.46875 -0.34375 2.640625 -1.046875l-1.234375 0l0 -7.09375l1.640625 0l0.296875 -1.171875l-2.453125 0l0 -1.109375l6.203125 0l0 1.109375l-2.453125 0l-0.53125 1.171875l2.578125 0l0 7.09375l-1.46875 0q0.765625 0.46875 2.234375 0.9375l-0.46875 1.046875q-1.46875 -0.40625 -2.53125 -1.21875l0.65625 -0.765625l-2.296875 0l0.65625 0.8125q0.234375 0.359375 -0.359375 0.234375q-1.109375 0.59375 -2.640625 1.0l-0.46875 -1.0zm-4.859375 -5.859375l0 -4.5625l4.8125 0l0 4.5625l-4.8125 0zm3.8125 -1.8125l-2.8125 0l0 0.875l2.8125 0l0 -0.875zm6.734375 0.46875l-3.28125 0l0 1.109375l3.28125 0l0 -1.109375zm0 2.046875l-3.28125 0l0 1.125l3.28125 0l0 -1.125zm0 2.0625l-3.28125 0l0 1.109375l3.28125 0l0 -1.109375zm-6.734375 -6.390625l-2.8125 0l0 0.875l2.8125 0l0 -0.875z" fill-rule="nonzero"/><path fill="#000000" fill-opacity="0.0" d="m208.46194 46.31365l0 23.527561" fill-rule="evenodd"/><path stroke="#000000" stroke-width="1.0" stroke-linejoin="round" stroke-linecap="butt" d="m208.46194 46.31365l0 17.527557" fill-rule="evenodd"/><path fill="#000000" stroke="#000000" stroke-width="1.0" stroke-linecap="butt" d="m206.81021 63.84121l1.6517334 4.5380936l1.6517334 -4.5380936z" fill-rule="evenodd"/><path fill="#ffffff" d="m124.461945 75.007545l168.0 0l0 34.456688l-168.0 0z" fill-rule="evenodd"/><path stroke="#000000" stroke-width="1.0" stroke-linejoin="round" stroke-linecap="butt" d="m124.461945 75.007545l168.0 0l0 34.456688l-168.0 0z" fill-rule="evenodd"/><path fill="#000000" d="m176.00882 98.37839l-0.9375 -1.1875l-9.265625 0.828125q-0.0625 0.46875 -0.296875 0.234375l-0.40625 -1.640625l2.0 -0.0625q1.28125 -2.046875 2.21875 -4.328125l-4.921875 0l0 -1.125l5.921875 0l0 -2.515625l-4.578125 0l0 -1.109375l4.578125 0l0 -2.109375l1.109375 0q0.46875 0.0625 0.0625 0.34375l0 1.765625l4.5625 0l0 1.109375l-4.5625 0l0 2.515625l5.921875 0l0 1.125l-6.453125 0q-1.234375 2.453125 -2.453125 4.328125l5.859375 -0.34375q-1.125 -1.296875 -2.0 -2.0625l0.875 -0.875q1.875 1.34375 3.984375 4.171875l-1.21875 0.9375zm10.421875 -13.3125q0.53125 0.0625 0.0625 0.359375l0 1.921875l1.234375 0l0.984375 -1.984375l1.125 0.234375q0.578125 0.109375 -0.0625 0.34375l-0.828125 1.40625l3.28125 0l0 2.765625l-1.171875 0l0 -1.828125l-10.25 0l0 1.875l-1.171875 0l0 -2.8125l2.9375 0q-0.421875 -0.75 -1.0 -1.453125l1.0 -0.53125q0.515625 0.578125 1.171875 1.640625l-0.703125 0.34375l2.28125 0l0 -2.28125l1.109375 0zm3.578125 13.484375l0 -0.640625l-8.203125 0l0 0.640625l-1.171875 0l0 -5.6875l10.546875 0l0 5.6875l-1.171875 0zm-8.203125 -3.640625l3.515625 0l0 -1.109375l-3.515625 0l0 1.109375zm0 2.046875l3.515625 0l0 -1.109375l-3.515625 0l0 1.109375zm4.6875 -2.046875l3.515625 0l0 -1.109375l-3.515625 0l0 1.109375zm0 2.046875l3.515625 0l0 -1.109375l-3.515625 0l0 1.109375zm3.109375 -4.859375l-7.390625 0l0 -2.875l7.390625 0l0 2.875zm-6.21875 -0.9375l5.046875 0l0 -1.0l-5.046875 0l0 1.0zm18.578125 0.828125l-1.640625 0l0 -1.125l1.640625 0l0 -3.6875l-1.234375 0l0 -1.109375l6.5 0l0 1.109375l-1.34375 0l0 3.6875l1.8125 0l0 1.125l-1.8125 0l0 6.4375l-1.171875 0l0 -6.4375l-1.578125 0l0 0.984375q0 3.640625 -3.578125 5.640625l-0.8125 -1.171875q3.21875 -1.59375 3.21875 -4.578125l0 -0.875zm-7.390625 -4.75l0 -1.109375l5.515625 0l0 1.109375l-2.46875 0q-0.109375 1.46875 -0.703125 3.046875l2.9375 0l0 5.96875l-2.9375 0l0 1.1875l-1.171875 0l0 -5.171875q-0.28125 0.65625 -0.875 1.0625l-0.640625 -1.234375q1.875 -1.640625 2.21875 -4.859375l-1.875 0zm10.140625 -0.0625l-1.578125 0l0 3.6875l1.578125 0l0 -3.6875zm-6.03125 4.21875l-1.765625 0l0 3.75l1.765625 0l0 -3.75zm22.90625 -1.703125q-0.46875 1.59375 -1.515625 1.59375l-2.40625 0q-1.0625 0 -1.0625 -1.0l0 -2.46875l-2.046875 0l0 0.53125q0 2.875 -3.625 3.515625l-0.296875 -1.234375q2.75 -0.515625 2.75 -2.28125l0 -0.53125l-2.75 0l0 1.703125l-1.171875 0l0 -2.8125l5.6875 0l0 -1.578125l1.28125 0q0.59375 0.109375 0.0625 0.46875l0 1.109375l5.453125 0l0 2.40625l-1.171875 0l0 -1.296875l-3.0 0l0 1.875q0 0.46875 0.421875 0.46875l1.515625 0q0.359375 0 0.46875 -0.28125l0.234375 -0.59375l1.171875 0.40625zm-3.578125 4.171875l-2.28125 0q-0.578125 3.75 -5.796875 4.859375l-0.359375 -1.40625q4.21875 -0.765625 4.921875 -3.453125l-3.984375 0l0 -1.125l4.171875 0q0.046875 -0.9375 0.046875 -1.875l1.296875 0.0625q0.171875 0.171875 -0.125 0.359375q0 0.578125 -0.046875 1.453125l3.328125 0l0 3.9375q0 0.46875 0.421875 0.46875l0.8125 0q0.59375 0 0.703125 -0.703125l0.171875 -1.296875l1.296875 0.359375l-0.171875 1.171875q-0.234375 1.578125 -1.359375 1.578125l-1.984375 0q-1.0625 0 -1.0625 -1.0l0 -3.390625zm14.71875 -4.28125l-2.0625 0l0 -1.109375l2.0625 0l0 -3.046875l1.109375 0q0.46875 0.046875 0.0625 0.34375l0 2.703125l3.28125 0l-0.234375 7.96875q-0.0625 1.875 -1.359375 1.875l-1.6875 0l-0.125 -1.125l1.296875 0q0.703125 0 0.703125 -0.578125l0.234375 -7.03125l-2.109375 0l0 1.515625q0 3.46875 -1.234375 4.984375q-1.171875 1.46875 -3.34375 2.34375l-0.640625 -1.109375q2.171875 -0.875 3.046875 -2.0q1.0 -1.28125 1.0 -4.5625l0 -1.171875zm-2.53125 5.09375l1.0 -0.234375l0.125 1.0625l-6.328125 1.640625q-0.0625 0.46875 -0.296875 0.234375l-0.40625 -1.46875l1.046875 -0.171875l0 -9.796875l4.859375 0l0 8.734375zm-1.171875 -7.4375l-2.515625 0l0 1.984375l2.515625 0l0 -1.984375zm0 3.109375l-2.515625 0l0 1.8125l2.515625 0l0 -1.8125zm0 2.921875l-2.515625 0l0 2.234375l2.515625 -0.53125l0 -1.703125zm15.234375 1.765625q-2.28125 0.8125 -4.265625 1.34375q-0.1875 0.46875 -0.359375 0.171875l-0.40625 -1.34375l2.046875 -0.40625l0 -3.234375l-1.578125 0l0 -1.109375l1.578125 0l0 -3.109375l-1.75 0l0 -1.109375l4.6875 0l0 1.109375l-1.765625 0l0 3.109375l1.578125 0l0 1.109375l-1.578125 0l0 2.9375q0.46875 -0.0625 1.703125 -0.46875l0.109375 1.0zm4.640625 -2.765625l0 1.703125l3.28125 0l0 1.109375l-3.28125 0l0 1.828125l3.859375 0l0 1.109375l-9.3125 0l0 -1.109375l4.453125 0l0 -1.828125l-3.171875 0l0 -1.109375l3.171875 0l0 -1.703125l-2.109375 0l0 0.765625l-1.0 0l0 -7.203125l7.265625 0l0 6.96875l-1.0 0l0 -0.53125l-2.15625 0zm2.15625 -2.6875l-2.15625 0l0 1.75l2.15625 0l0 -1.75zm0 -2.8125l-2.15625 0l0 1.875l2.15625 0l0 -1.875zm-3.15625 1.875l0 -1.875l-2.109375 0l0 1.875l2.109375 0zm0 0.9375l-2.109375 0l0 1.75l2.109375 0l0 -1.75z" fill-rule="nonzero"/><path fill="#000000" fill-opacity="0.0" d="m75.72179 146.73753l96.0 0l0 34.456696l-96.0 0z" fill-rule="evenodd"/><path fill="#000000" d="m92.20616 162.89566l0.515625 -1.640625l1.359375 0.234375q0.234375 0.296875 -0.234375 0.359375l-0.421875 1.046875l6.6875 0l0 1.125l-7.09375 0q-0.53125 0.9375 -1.0 1.578125l6.28125 0l0 5.328125l-1.171875 0l0 -0.578125l-5.390625 0l0 0.765625l-1.171875 0l0 -3.8125q-1.359375 1.171875 -2.9375 1.921875l-0.46875 -1.21875q3.171875 -1.40625 4.515625 -3.984375l-4.34375 0l0 -1.125l4.875 0zm4.21875 -5.09375q0.46875 0.0625 0.046875 0.359375l0 1.171875l3.46875 0l0 1.109375l-3.46875 0l0 1.46875l-1.171875 0l0 -1.46875l-3.328125 0l0 1.46875l-1.171875 0l0 -1.46875l-3.515625 0l0 -1.109375l3.515625 0l0 -1.53125l1.109375 0q0.46875 0.0625 0.0625 0.359375l0 1.171875l3.328125 0l0 -1.53125l1.125 0zm-4.6875 8.90625l0 2.515625l5.390625 0l0 -2.515625l-5.390625 0zm23.609375 2.875l-0.171875 1.109375l-7.5 0q-2.0 0 -3.171875 -1.578125q-0.703125 1.109375 -1.75 1.8125l-0.765625 -1.28125q1.046875 -0.53125 1.875 -1.171875l0 -3.640625l-1.8125 0l0 -1.28125l3.15625 0l0 4.859375q0.875 1.171875 2.40625 1.171875l7.734375 0zm-2.046875 -1.8125q0.234375 0 0.234375 -0.234375l0 -5.109375l-2.578125 0l0 0.890625l1.921875 0l0 0.9375l-1.921875 0l0 0.875l1.515625 0l0 2.75l-3.046875 0l0 0.59375l-1.0 0l0 -3.34375l1.53125 0l0 -0.875l-2.0 0l0 -0.9375l2.0 0l0 -0.890625l-2.640625 0l0 6.453125l-1.171875 0l0 -7.390625l2.171875 0l-0.828125 -1.578125l-1.75 0l0 -1.109375l3.921875 0l0 -1.234375l1.296875 0q0.578125 0.125 0.046875 0.46875l0 0.765625l4.171875 0l0 1.109375l-1.828125 0l-1.171875 1.578125l2.53125 0l0 6.453125q0 0.9375 -0.9375 0.9375l-1.0625 0l-0.0625 -1.109375l0.65625 0zm-3.875 -1.9375l0 1.34375l2.046875 0l0 -1.34375l-2.046875 0zm2.515625 -5.921875l-3.09375 0l0.703125 1.578125l1.453125 0l0.9375 -1.578125zm-8.484375 -2.046875q0.9375 0.8125 1.8125 2.046875l-1.171875 1.109375q-0.765625 -1.34375 -1.703125 -2.21875l1.0625 -0.9375zm20.734375 0.578125q2.28125 2.875 6.03125 4.046875l-0.578125 1.34375q-3.984375 -1.453125 -6.265625 -4.625q-1.0625 2.171875 -2.9375 3.453125l6.5 0l0 1.125l-6.5625 0l0 -1.0625q-1.046875 0.875 -2.453125 1.53125l-0.828125 -1.125q4.28125 -1.984375 5.625 -5.328125l1.53125 0.296875q0.40625 0.0625 -0.0625 0.34375zm-3.6875 12.546875l-1.171875 0l0 -5.796875l8.734375 0l0 5.625l-1.171875 0l0 -0.640625l-6.390625 0l0 0.8125zm0 -1.9375l6.390625 0l0 -2.75l-6.390625 0l0 2.75zm19.21875 -4.5625l-1.640625 0l0 -1.125l1.640625 0l0 -3.6875l-1.234375 0l0 -1.109375l6.5 0l0 1.109375l-1.34375 0l0 3.6875l1.8125 0l0 1.125l-1.8125 0l0 6.4375l-1.171875 0l0 -6.4375l-1.578125 0l0 0.984375q0 3.640625 -3.578125 5.640625l-0.8125 -1.171875q3.21875 -1.59375 3.21875 -4.578125l0 -0.875zm-7.390625 -4.75l0 -1.109375l5.515625 0l0 1.109375l-2.46875 0q-0.109375 1.46875 -0.703125 3.046875l2.9375 0l0 5.96875l-2.9375 0l0 1.1875l-1.171875 0l0 -5.171875q-0.28125 0.65625 -0.875 1.0625l-0.640625 -1.234375q1.875 -1.640625 2.21875 -4.859375l-1.875 0zm10.140625 -0.0625l-1.578125 0l0 3.6875l1.578125 0l0 -3.6875zm-6.03125 4.21875l-1.765625 0l0 3.75l1.765625 0l0 -3.75zm22.90625 -1.703125q-0.46875 1.59375 -1.515625 1.59375l-2.40625 0q-1.0625 0 -1.0625 -1.0l0 -2.46875l-2.046875 0l0 0.53125q0 2.875 -3.625 3.515625l-0.296875 -1.234375q2.75 -0.515625 2.75 -2.28125l0 -0.53125l-2.75 0l0 1.703125l-1.171875 0l0 -2.8125l5.6875 0l0 -1.578125l1.28125 0q0.59375 0.109375 0.0625 0.46875l0 1.109375l5.453125 0l0 2.40625l-1.171875 0l0 -1.296875l-3.0 0l0 1.875q0 0.46875 0.421875 0.46875l1.515625 0q0.359375 0 0.46875 -0.28125l0.234375 -0.59375l1.171875 0.40625zm-3.578125 4.171875l-2.28125 0q-0.578125 3.75 -5.796875 4.859375l-0.359375 -1.40625q4.21875 -0.765625 4.921875 -3.453125l-3.984375 0l0 -1.125l4.171875 0q0.046875 -0.9375 0.046875 -1.875l1.296875 0.0625q0.171875 0.171875 -0.125 0.359375q0 0.578125 -0.046875 1.453125l3.328125 0l0 3.9375q0 0.46875 0.421875 0.46875l0.8125 0q0.59375 0 0.703125 -0.703125l0.171875 -1.296875l1.296875 0.359375l-0.171875 1.171875q-0.234375 1.578125 -1.359375 1.578125l-1.984375 0q-1.0625 0 -1.0625 -1.0l0 -3.390625z" fill-rule="nonzero"/><path fill="#000000" fill-opacity="0.0" d="m249.17377 146.73753l86.33072 0l0 34.456696l-86.33072 0z" fill-rule="evenodd"/><path fill="#000000" d="m268.3235 162.89566l0.515625 -1.640625l1.359375 0.234375q0.234375 0.296875 -0.234375 0.359375l-0.421875 1.046875l6.6875 0l0 1.125l-7.09375 0q-0.53125 0.9375 -1.0 1.578125l6.28125 0l0 5.328125l-1.171875 0l0 -0.578125l-5.390625 0l0 0.765625l-1.171875 0l0 -3.8125q-1.359375 1.171875 -2.9375 1.921875l-0.46875 -1.21875q3.171875 -1.40625 4.515625 -3.984375l-4.34375 0l0 -1.125l4.875 0zm4.21875 -5.09375q0.46875 0.0625 0.046875 0.359375l0 1.171875l3.46875 0l0 1.109375l-3.46875 0l0 1.46875l-1.171875 0l0 -1.46875l-3.328125 0l0 1.46875l-1.171875 0l0 -1.46875l-3.515625 0l0 -1.109375l3.515625 0l0 -1.53125l1.109375 0q0.46875 0.0625 0.0625 0.359375l0 1.171875l3.328125 0l0 -1.53125l1.125 0zm-4.6875 8.90625l0 2.515625l5.390625 0l0 -2.515625l-5.390625 0zm22.4375 0.359375q-1.9375 -2.171875 -4.109375 -3.46875l0.828125 -1.046875q2.28125 1.171875 4.328125 3.390625l-1.046875 1.125zm-11.546875 -8.203125l12.3125 0l0 1.28125l-5.109375 0q-0.171875 0.59375 -0.515625 1.234375l0 9.5l-1.359375 0l0 -7.515625q-1.984375 2.53125 -5.03125 3.875l-0.828125 -1.34375q4.34375 -1.828125 6.28125 -5.75l-5.75 0l0 -1.28125zm27.71875 10.71875l-0.171875 1.109375l-7.5 0q-2.0 0 -3.171875 -1.578125q-0.703125 1.109375 -1.75 1.8125l-0.765625 -1.28125q1.046875 -0.53125 1.875 -1.171875l0 -3.640625l-1.8125 0l0 -1.28125l3.15625 0l0 4.859375q0.875 1.171875 2.40625 1.171875l7.734375 0zm-2.046875 -1.8125q0.234375 0 0.234375 -0.234375l0 -5.109375l-2.578125 0l0 0.890625l1.921875 0l0 0.9375l-1.921875 0l0 0.875l1.515625 0l0 2.75l-3.046875 0l0 0.59375l-1.0 0l0 -3.34375l1.53125 0l0 -0.875l-2.0 0l0 -0.9375l2.0 0l0 -0.890625l-2.640625 0l0 6.453125l-1.171875 0l0 -7.390625l2.171875 0l-0.828125 -1.578125l-1.75 0l0 -1.109375l3.921875 0l0 -1.234375l1.296875 0q0.578125 0.125 0.046875 0.46875l0 0.765625l4.171875 0l0 1.109375l-1.828125 0l-1.171875 1.578125l2.53125 0l0 6.453125q0 0.9375 -0.9375 0.9375l-1.0625 0l-0.0625 -1.109375l0.65625 0zm-3.875 -1.9375l0 1.34375l2.046875 0l0 -1.34375l-2.046875 0zm2.515625 -5.921875l-3.09375 0l0.703125 1.578125l1.453125 0l0.9375 -1.578125zm-8.484375 -2.046875q0.9375 0.8125 1.8125 2.046875l-1.171875 1.109375q-0.765625 -1.34375 -1.703125 -2.21875l1.0625 -0.9375zm20.734375 0.578125q2.28125 2.875 6.03125 4.046875l-0.578125 1.34375q-3.984375 -1.453125 -6.265625 -4.625q-1.0625 2.171875 -2.9375 3.453125l6.5 0l0 1.125l-6.5625 0l0 -1.0625q-1.046875 0.875 -2.453125 1.53125l-0.828125 -1.125q4.28125 -1.984375 5.625 -5.328125l1.53125 0.296875q0.40625 0.0625 -0.0625 0.34375zm-3.6875 12.546875l-1.171875 0l0 -5.796875l8.734375 0l0 5.625l-1.171875 0l0 -0.640625l-6.390625 0l0 0.8125zm0 -1.9375l6.390625 0l0 -2.75l-6.390625 0l0 2.75z" fill-rule="nonzero"/><path fill="#000000" fill-opacity="0.0" d="m208.46194 109.46423l0 18.636627l-84.72441 0l0 18.623215" fill-rule="evenodd"/><path stroke="#000000" stroke-width="1.0" stroke-linejoin="round" stroke-linecap="butt" d="m208.46194 109.46424l0 18.63662l-84.72441 0l0 12.623215" fill-rule="evenodd"/><path fill="#000000" stroke="#000000" stroke-width="1.0" stroke-linecap="butt" d="m122.0858 140.72408l1.6517334 4.538101l1.6517334 -4.538101z" fill-rule="evenodd"/><path fill="#000000" fill-opacity="0.0" d="m208.46194 109.46423l0 18.636627l83.87402 0l0 18.623215" fill-rule="evenodd"/><path stroke="#000000" stroke-width="1.0" stroke-linejoin="round" stroke-linecap="butt" d="m208.46194 109.46424l0 18.63662l83.87402 0l0 12.623215" fill-rule="evenodd"/><path fill="#000000" stroke="#000000" stroke-width="1.0" stroke-linecap="butt" d="m290.68423 140.72408l1.6517334 4.538101l1.6517334 -4.538101z" fill-rule="evenodd"/><path fill="#ffffff" d="m40.902176 195.00754l168.0 0l0 34.456696l-168.0 0z" fill-rule="evenodd"/><path stroke="#000000" stroke-width="1.0" stroke-linejoin="round" stroke-linecap="butt" d="m40.902176 195.00754l168.0 0l0 34.456696l-168.0 0z" fill-rule="evenodd"/><path fill="#000000" d="m97.06382 208.47214l0 1.921875l3.40625 0l0 -1.921875l-3.40625 0zm0 5.03125l3.40625 0l0 -1.984375l-3.40625 0l0 1.984375zm4.578125 0l3.453125 0l0 -1.984375l-3.453125 0l0 1.984375zm0 -3.109375l3.453125 0l0 -1.921875l-3.453125 0l0 1.921875zm-1.171875 -3.046875l0 -2.21875l1.109375 0q0.59375 0.109375 0.0625 0.46875l0 1.75l4.796875 0l0 7.796875l-1.34375 0l0 -0.53125l-3.453125 0l0 4.0l-1.171875 0l0 -4.0l-3.40625 0l0 0.9375l-1.34375 0l0 -8.203125l4.75 0zm21.203125 10.375q0 0.765625 -0.75 0.765625l-1.125 0l-0.234375 -0.9375l0.890625 0q0.234375 0 0.234375 -0.234375l0 -1.171875l-4.109375 0l0 2.34375l-1.0 0l0 -6.796875l6.09375 0l0 6.03125zm-7.96875 -12.1875l0 1.109375l-3.5625 0l0 -1.109375l3.5625 0zm-4.265625 3.109375l0 -1.109375l4.96875 0l0 1.109375l-4.96875 0zm4.265625 1.0l0 1.109375l-3.5625 0l0 -1.109375l3.5625 0zm0 2.109375l0 1.109375l-3.5625 0l0 -1.109375l3.5625 0zm0.296875 2.109375l0 4.515625l-1.0 0l0 -0.46875l-2.109375 0l0 0.703125l-0.984375 0l0 -4.75l4.09375 0zm-1.0 0.9375l-2.109375 0l0 2.15625l2.109375 0l0 -2.15625zm7.6875 -0.421875l-4.109375 0l0 0.828125l4.109375 0l0 -0.828125zm0.9375 -6.203125l0 0.9375l-2.640625 0l0 0.9375l3.8125 0l0 0.9375l-8.328125 0l0 -0.9375l3.515625 0l0 -0.9375l-2.578125 0l0 -0.9375l2.578125 0l0 -0.9375l-3.109375 0l0 -0.9375l3.109375 0l0 -1.234375l0.9375 0q0.46875 0.0625 0.0625 0.359375l0 0.875l3.34375 0l0 0.9375l-3.34375 0l0 0.9375l2.640625 0zm-0.9375 4.453125l-4.109375 0l0 0.8125l4.109375 0l0 -0.8125z" fill-rule="nonzero"/><path fill="#000000" d="m128.80766 217.31589l0 -10.484375l3.96875 0q1.046875 0 1.59375 0.09375q0.765625 0.125 1.28125 0.484375q0.53125 0.359375 0.84375 1.015625q0.328125 0.65625 0.328125 1.4375q0 1.328125 -0.859375 2.265625q-0.84375 0.921875 -3.078125 0.921875l-2.6875 0l0 4.265625l-1.390625 0zm1.390625 -5.5l2.71875 0q1.34375 0 1.90625 -0.5q0.5625 -0.5 0.5625 -1.40625q0 -0.671875 -0.328125 -1.140625q-0.328125 -0.46875 -0.875 -0.609375q-0.359375 -0.09375 -1.296875 -0.09375l-2.6875 0l0 3.75zm8.228729 5.5l0 -10.484375l1.28125 0l0 3.75q0.90625 -1.03125 2.28125 -1.03125q0.84375 0 1.46875 0.328125q0.625 0.328125 0.890625 0.921875q0.265625 0.578125 0.265625 1.703125l0 4.8125l-1.28125 0l0 -4.8125q0 -0.96875 -0.421875 -1.40625q-0.421875 -0.4375 -1.1875 -0.4375q-0.578125 0 -1.078125 0.296875q-0.5 0.296875 -0.71875 0.8125q-0.21875 0.5 -0.21875 1.390625l0 4.15625l-1.28125 0zm8.307358 0l0 -10.484375l3.625 0q1.21875 0 1.859375 0.140625q0.90625 0.203125 1.546875 0.75q0.828125 0.703125 1.234375 1.796875q0.40625 1.09375 0.40625 2.5q0 1.1875 -0.28125 2.109375q-0.265625 0.921875 -0.703125 1.53125q-0.4375 0.609375 -0.96875 0.953125q-0.515625 0.34375 -1.25 0.53125q-0.71875 0.171875 -1.671875 0.171875l-3.796875 0zm1.390625 -1.234375l2.25 0q1.03125 0 1.625 -0.1875q0.59375 -0.203125 0.9375 -0.546875q0.5 -0.5 0.765625 -1.328125q0.28125 -0.84375 0.28125 -2.03125q0 -1.640625 -0.546875 -2.515625q-0.53125 -0.890625 -1.3125 -1.1875q-0.546875 -0.21875 -1.796875 -0.21875l-2.203125 0l0 8.015625z" fill-rule="nonzero"/><path fill="#000000" fill-opacity="0.0" d="m123.72179 181.19423l1.1653519 13.826767" fill-rule="evenodd"/><path stroke="#000000" stroke-width="1.0" stroke-linejoin="round" stroke-linecap="butt" d="m123.72179 181.19423l0.6614456 7.8479767" fill-rule="evenodd"/><path fill="#000000" stroke="#000000" stroke-width="1.0" stroke-linecap="butt" d="m122.737335 189.18091l2.0270233 4.3833466l1.2647705 -4.660782z" fill-rule="evenodd"/><path fill="#ffffff" d="m224.90279 195.00787l142.64568 0l0 34.456696l-142.64568 0z" fill-rule="evenodd"/><path stroke="#000000" stroke-width="1.0" stroke-linejoin="round" stroke-linecap="butt" d="m224.90279 195.00787l142.64568 0l0 34.456696l-142.64568 0z" fill-rule="evenodd"/><path fill="#000000" d="m265.07394 209.22247q-0.171875 2.9375 -1.453125 5.578125q1.109375 1.40625 2.859375 2.453125l-0.75 1.296875q-1.640625 -1.0625 -2.875 -2.640625q-1.8125 2.046875 -3.40625 2.75l-0.578125 -1.21875q1.875 -1.0625 3.21875 -2.53125q-1.046875 -1.8125 -1.515625 -3.921875q-0.46875 1.0 -1.0 1.703125l-0.765625 -1.234375q1.46875 -2.28125 2.046875 -6.21875l1.296875 0.1875q0.40625 0.171875 -0.125 0.28125q-0.171875 1.0 -0.515625 2.40625l4.921875 0l0 1.109375l-1.359375 0zm-5.625 -0.28125l-3.390625 0l0 1.6875l2.578125 0l0 6.6875q0 1.0 -0.9375 1.0l-1.46875 0l-0.171875 -1.125l1.234375 0q0.171875 0 0.171875 -0.171875l0 -5.265625l-1.40625 0l0 0.8125q0 3.6875 -2.1718597 6.15625l-0.8125 -1.046875q1.8125 -1.890625 1.8125 -5.109375l0 -3.625l-1.875 0l0 -1.125l2.40625 0l0 -2.6875l1.1093597 0q0.46875 0.0625 0.0625 0.34375l0 2.34375l2.859375 0l0 1.125zm3.34375 4.796875q0.703125 -1.40625 1.109375 -4.515625l-2.578125 0q0.53125 2.9375 1.46875 4.515625zm18.21875 4.6875q-3.921875 -0.8125 -5.734375 -3.109375l0 3.296875l-1.0 0l0 -3.234375q-1.8125 2.53125 -5.5625 3.234375l-0.40625 -1.234375q3.625 -0.59375 5.15625 -2.46875l-5.15625 0l0 -0.9375l5.96875 0l0 -0.703125l-1.515625 0l-1.53125 0l0 -0.9375l0 -0.9375l-2.75 0l0 -0.9375l2.75 0l0 -0.9375l-1.28125 0.0625q-0.234375 0.34375 -0.421875 0.0625l-0.171875 -1.125l2.46875 0l0.75 -1.28125l-4.09375 0l0 -0.9375l5.734375 0l0 -1.171875l1.125 0q0.46875 0.0625 0.046875 0.34375l0 0.828125l5.6875 0l0 0.9375l-3.578125 0q1.234375 0.640625 2.9375 1.703125l-0.765625 0.9375q-0.34375 -0.359375 -0.8125 -0.65625l-0.46875 0l0 1.234375l2.6875 0l0 0.9375l-2.6875 0l0 1.875l-3.109375 0l0 0.703125l5.96875 0l0 0.9375l-5.15625 0q2.0625 1.8125 5.390625 2.234375l-0.46875 1.28125zm-5.734375 -9.015625l0 1.046875l2.109375 0l0 -1.109375l-2.109375 0.0625zm-3.046875 0.109375l0 0.9375l2.046875 0l0 -1.0l-2.046875 0.0625zm0.703125 -1.0l4.75 -0.046875q-0.59375 -0.359375 -1.296875 -0.65625l0.40625 -0.578125l-2.984375 0l-0.875 1.28125zm-0.703125 2.875l0 0.9375l2.046875 0l0 -0.9375l-2.046875 0zm3.046875 0l0 0.9375l2.109375 0l0 -0.9375l-2.109375 0z" fill-rule="nonzero"/><path fill="#000000" d="m287.41156 217.31622l0 -10.484375l2.078125 0l2.484375 7.421875q0.34375 1.03125 0.5 1.546875q0.1875 -0.5625 0.5625 -1.671875l2.515625 -7.296875l1.859375 0l0 10.484375l-1.328125 0l0 -8.78125l-3.046875 8.78125l-1.265625 0l-3.03125 -8.9375l0 8.9375l-1.328125 0zm12.193146 0l0 -10.484375l1.390625 0l0 9.25l5.15625 0l0 1.234375l-6.546875 0z" fill-rule="nonzero"/><path fill="#000000" d="m317.06476 218.31622q-1.8125 0 -3.34375 -1.46875q-1.234375 1.171875 -1.984375 1.640625l-0.65625 -1.34375l2.109375 -1.171875l0 -3.703125l-1.921875 0l0 -1.109375l3.09375 0l0 4.8125q1.125 1.21875 3.046875 1.21875l7.09375 0l-0.234375 1.125l-7.203125 0zm-3.640625 -9.671875q-0.75 -1.109375 -1.984375 -2.28125l0.9375 -0.765625q1.34375 1.171875 2.109375 2.171875l-1.0625 0.875zm6.796875 -0.703125l-0.640625 1.109375l3.21875 0l0 7.328125l-0.984375 0l0 -0.40625l-4.640625 0l0 0.640625l-0.984375 0l0 -7.5625l2.28125 0l0.40625 -1.109375l-3.984375 0l0 -0.9375l2.578125 0q-0.34375 -0.46875 -1.109375 -1.234375l0.9375 -0.703125q0.640625 0.53125 1.234375 1.296875l-0.890625 0.640625l2.34375 0l0.765625 -2.0l1.296875 0.234375q0.234375 0.234375 -0.1875 0.296875l-0.875 1.46875l3.171875 0l0 0.9375l-3.9375 0zm1.59375 5.96875l-4.640625 0l0 1.125l4.640625 0l0 -1.125zm0 -1.921875l-4.640625 0l0 0.984375l4.640625 0l0 -0.984375zm0 -2.0l-4.640625 0l0 1.0625l4.640625 0l0 -1.0625zm15.28125 6.796875l0 -2.640625l-2.921875 0l0 2.640625l2.921875 0zm1.171875 1.59375l-1.171875 0l0 -0.65625l-2.921875 0l0 0.828125l-1.171875 0l0 -5.34375l5.265625 0l0 5.171875zm-4.15625 -10.90625q0.296875 0.8125 1.46875 2.109375q1.046875 -1.40625 1.34375 -2.109375l-2.8125 0zm1.46875 3.75q-2.046875 1.875 -3.8125 2.515625l-0.53125 -1.171875q1.640625 -0.53125 3.578125 -2.21875q-0.46875 -0.46875 -1.234375 -1.703125q-0.578125 1.34375 -1.171875 1.9375l-0.875 -0.890625q1.40625 -1.875 2.171875 -4.6875l1.234375 0.359375q0.234375 0.234375 -0.1875 0.296875l-0.28125 0.703125l2.984375 0l0.171875 -0.296875l0.9375 0.765625q0.234375 0.171875 -0.234375 0.34375q-0.8125 1.875 -1.9375 3.171875q2.0 1.515625 3.40625 1.984375l-0.46875 1.296875q-1.40625 -0.46875 -3.75 -2.40625zm-4.28125 -5.28125l0 4.34375l-1.46875 0l0 2.171875l1.359375 0l0 1.109375l-1.359375 0l0 2.6875l2.0625 -0.640625l0.234375 1.0625l-5.390625 1.515625q-0.0625 0.46875 -0.296875 0.234375l-0.46875 -1.28125l0.703125 -0.125l0 -5.453125l1.109375 0q0.46875 0.0625 0.0625 0.359375l0 4.796875l0.8125 -0.171875l0 -6.265625l-1.046875 0l-1.0 0l0 -4.34375l4.6875 0zm-1.171875 3.40625l0 -2.46875l-2.34375 0l0 2.46875l2.34375 0z" fill-rule="nonzero"/><path fill="#000000" fill-opacity="0.0" d="m292.58722 181.18077l0.3149414 13.826767" fill-rule="evenodd"/><path stroke="#000000" stroke-width="1.0" stroke-linejoin="round" stroke-linecap="butt" d="m292.58722 181.18077l0.17831421 7.8283386" fill-rule="evenodd"/><path fill="#000000" stroke="#000000" stroke-width="1.0" stroke-linecap="butt" d="m291.11423 189.04672l1.7546387 4.499298l1.5479736 -4.574539z" fill-rule="evenodd"/><path fill="#000000" fill-opacity="0.0" d="m296.22562 229.46457l0 18.771652l-79.52756 0l0 18.771652" fill-rule="evenodd"/><path stroke="#000000" stroke-width="1.0" stroke-linejoin="round" stroke-linecap="butt" d="m296.22562 229.46457l0 18.771652l-79.52756 0l0 12.771652" fill-rule="evenodd"/><path fill="#000000" stroke="#000000" stroke-width="1.0" stroke-linecap="butt" d="m215.04633 261.00787l1.6517334 4.538086l1.6517334 -4.538086z" fill-rule="evenodd"/><path fill="#000000" fill-opacity="0.0" d="m296.22562 229.46457l0 18.771652l63.149597 0l0 18.771652" fill-rule="evenodd"/><path stroke="#000000" stroke-width="1.0" stroke-linejoin="round" stroke-linecap="butt" d="m296.22562 229.46457l0 18.771652l63.149597 0l0 12.771652" fill-rule="evenodd"/><path fill="#000000" stroke="#000000" stroke-width="1.0" stroke-linecap="butt" d="m357.72348 261.00787l1.6517334 4.538086l1.6517334 -4.538086z" fill-rule="evenodd"/><path fill="#ffffff" d="m304.90286 267.00787l108.91339 0l0 34.456696l-108.91339 0z" fill-rule="evenodd"/><path stroke="#000000" stroke-width="1.0" stroke-linejoin="round" stroke-linecap="butt" d="m304.90286 267.00787l108.91339 0l0 34.456696l-108.91339 0z" fill-rule="evenodd"/><path fill="#000000" d="m322.56857 271.47247l0 1.921875l3.40625 0l0 -1.921875l-3.40625 0zm0 5.03125l3.40625 0l0 -1.984375l-3.40625 0l0 1.984375zm4.578125 0l3.453125 0l0 -1.984375l-3.453125 0l0 1.984375zm0 -3.109375l3.453125 0l0 -1.921875l-3.453125 0l0 1.921875zm-1.171875 -3.046875l0 -2.21875l1.109375 0q0.59375 0.109375 0.0625 0.46875l0 1.75l4.796875 0l0 7.796875l-1.34375 0l0 -0.53125l-3.453125 0l0 4.0l-1.171875 0l0 -4.0l-3.40625 0l0 0.9375l-1.34375 0l0 -8.203125l4.75 0zm21.203125 10.375q0 0.765625 -0.75 0.765625l-1.125 0l-0.234375 -0.9375l0.890625 0q0.234375 0 0.234375 -0.234375l0 -1.171875l-4.109375 0l0 2.34375l-1.0 0l0 -6.796875l6.09375 0l0 6.03125zm-7.96875 -12.1875l0 1.109375l-3.5625 0l0 -1.109375l3.5625 0zm-4.265625 3.109375l0 -1.109375l4.96875 0l0 1.109375l-4.96875 0zm4.265625 1.0l0 1.109375l-3.5625 0l0 -1.109375l3.5625 0zm0 2.109375l0 1.109375l-3.5625 0l0 -1.109375l3.5625 0zm0.296875 2.109375l0 4.515625l-1.0 0l0 -0.46875l-2.109375 0l0 0.703125l-0.984375 0l0 -4.75l4.09375 0zm-1.0 0.9375l-2.109375 0l0 2.15625l2.109375 0l0 -2.15625zm7.6875 -0.421875l-4.109375 0l0 0.828125l4.109375 0l0 -0.828125zm0.9375 -6.203125l0 0.9375l-2.640625 0l0 0.9375l3.8125 0l0 0.9375l-8.328125 0l0 -0.9375l3.515625 0l0 -0.9375l-2.578125 0l0 -0.9375l2.578125 0l0 -0.9375l-3.109375 0l0 -0.9375l3.109375 0l0 -1.234375l0.9375 0q0.46875 0.0625 0.0625 0.359375l0 0.875l3.34375 0l0 0.9375l-3.34375 0l0 0.9375l2.640625 0zm-0.9375 4.453125l-4.109375 0l0 0.8125l4.109375 0l0 -0.8125z" fill-rule="nonzero"/><path fill="#000000" d="m361.7968 276.64435l1.390625 0.34375q-0.4375 1.703125 -1.578125 2.609375q-1.125 0.890625 -2.765625 0.890625q-1.6875 0 -2.75 -0.6875q-1.0625 -0.6875 -1.625 -2.0q-0.546875 -1.3125 -0.546875 -2.8125q0 -1.640625 0.625 -2.859375q0.625 -1.21875 1.78125 -1.84375q1.15625 -0.640625 2.546875 -0.640625q1.5625 0 2.640625 0.8125q1.078125 0.796875 1.5 2.25l-1.375 0.3125q-0.359375 -1.140625 -1.0625 -1.65625q-0.6875 -0.53125 -1.734375 -0.53125q-1.21875 0 -2.03125 0.578125q-0.8125 0.578125 -1.140625 1.5625q-0.328125 0.96875 -0.328125 2.015625q0 1.328125 0.390625 2.328125q0.390625 1.0 1.21875 1.5q0.828125 0.484375 1.78125 0.484375q1.171875 0 1.96875 -0.671875q0.8125 -0.671875 1.09375 -1.984375zm2.631134 0.296875l1.3125 -0.109375q0.09375 0.78125 0.421875 1.296875q0.34375 0.5 1.0625 0.8125q0.71875 0.3125 1.609375 0.3125q0.796875 0 1.40625 -0.234375q0.609375 -0.234375 0.90625 -0.640625q0.296875 -0.421875 0.296875 -0.90625q0 -0.5 -0.296875 -0.859375q-0.28125 -0.375 -0.9375 -0.625q-0.421875 -0.171875 -1.875 -0.515625q-1.4375 -0.34375 -2.015625 -0.65625q-0.75 -0.390625 -1.125 -0.96875q-0.359375 -0.59375 -0.359375 -1.3125q0 -0.796875 0.4375 -1.484375q0.453125 -0.6875 1.3125 -1.046875q0.875 -0.359375 1.9375 -0.359375q1.171875 0 2.0625 0.375q0.890625 0.375 1.359375 1.109375q0.484375 0.734375 0.515625 1.65625l-1.328125 0.09375q-0.109375 -1.0 -0.734375 -1.5q-0.609375 -0.515625 -1.8125 -0.515625q-1.265625 0 -1.84375 0.46875q-0.578125 0.46875 -0.578125 1.109375q0 0.5625 0.421875 0.9375q0.390625 0.359375 2.078125 0.75q1.703125 0.375 2.328125 0.65625q0.921875 0.421875 1.359375 1.078125q0.4375 0.640625 0.4375 1.484375q0 0.84375 -0.484375 1.59375q-0.484375 0.734375 -1.390625 1.140625q-0.890625 0.40625 -2.015625 0.40625q-1.421875 0 -2.390625 -0.40625q-0.953125 -0.421875 -1.5 -1.25q-0.546875 -0.828125 -0.578125 -1.890625zm14.285065 3.375l0 -10.484375l2.078125 0l2.484375 7.421875q0.34375 1.03125 0.5 1.546875q0.1875 -0.5625 0.5625 -1.671875l2.515625 -7.296875l1.859375 0l0 10.484375l-1.328125 0l0 -8.78125l-3.046875 8.78125l-1.265625 0l-3.03125 -8.9375l0 8.9375l-1.328125 0zm11.771271 -3.375l1.3125 -0.109375q0.09375 0.78125 0.421875 1.296875q0.34375 0.5 1.0625 0.8125q0.71875 0.3125 1.609375 0.3125q0.796875 0 1.40625 -0.234375q0.609375 -0.234375 0.90625 -0.640625q0.296875 -0.421875 0.296875 -0.90625q0 -0.5 -0.296875 -0.859375q-0.28125 -0.375 -0.9375 -0.625q-0.421875 -0.171875 -1.875 -0.515625q-1.4375 -0.34375 -2.015625 -0.65625q-0.75 -0.390625 -1.125 -0.96875q-0.359375 -0.59375 -0.359375 -1.3125q0 -0.796875 0.4375 -1.484375q0.453125 -0.6875 1.3125 -1.046875q0.875 -0.359375 1.9375 -0.359375q1.171875 0 2.0625 0.375q0.890625 0.375 1.359375 1.109375q0.484375 0.734375 0.515625 1.65625l-1.328125 0.09375q-0.109375 -1.0 -0.734375 -1.5q-0.609375 -0.515625 -1.8125 -0.515625q-1.265625 0 -1.84375 0.46875q-0.578125 0.46875 -0.578125 1.109375q0 0.5625 0.421875 0.9375q0.390625 0.359375 2.078125 0.75q1.703125 0.375 2.328125 0.65625q0.921875 0.421875 1.359375 1.078125q0.4375 0.640625 0.4375 1.484375q0 0.84375 -0.484375 1.59375q-0.484375 0.734375 -1.390625 1.140625q-0.890625 0.40625 -2.015625 0.40625q-1.421875 0 -2.390625 -0.40625q-0.953125 -0.421875 -1.5 -1.25q-0.546875 -0.828125 -0.578125 -1.890625z" fill-rule="nonzero"/><path fill="#000000" d="m347.81268 292.8631l0 0.765625l1.125 -0.0625l-0.46875 -0.40625l0.640625 -0.296875l-1.296875 0zm-2.515625 3.578125q0.765625 0.640625 1.296875 1.40625l-0.890625 0.875q-0.515625 -0.875 -1.21875 -1.515625l0.8125 -0.765625zm2.515625 -8.09375l0 0.765625l2.53125 0l0 3.75l-0.9375 0q0.8125 0.640625 1.640625 1.53125l-0.890625 0.640625l-0.46875 -0.59375l-0.75 0.0625l0 0.9375l2.28125 0l0 0.9375l-2.28125 0l0 2.296875q0 0.9375 -0.828125 0.9375l-0.9375 0l-0.296875 -1.125l0.828125 0q0.234375 0 0.234375 -0.234375l0 -1.875l-4.046875 0l0 -0.9375l4.046875 0l0 -0.9375l-3.453125 0.171875q-0.234375 0.53125 -0.421875 0.0625l-0.234375 -1.046875l3.0 -0.0625l0 -0.765625l-1.234375 0l-1.234375 0l0 -3.75l2.46875 0l0 -0.765625l-2.8125 0l0 -0.9375l2.8125 0l0 -1.28125l0.9375 0q0.46875 0.0625 0.046875 0.34375l0 0.9375l3.171875 0l0 0.9375l-3.171875 0zm1.53125 3.8125l0 -0.8125l-1.53125 0l0 0.8125l1.53125 0zm-2.515625 -1.515625l0 -0.828125l-1.46875 0l0 0.828125l1.46875 0zm2.515625 0l0 -0.828125l-1.53125 0l0 0.828125l1.53125 0zm-2.515625 0.703125l-1.46875 0l0 0.8125l1.46875 0l0 -0.8125zm-5.625 2.515625l0.9375 0l0 -1.171875l-0.9375 0l0 1.171875zm-1.9375 0l0.9375 0l0 -1.171875l-0.9375 0l0 1.171875zm0 -2.109375l0.9375 0l0 -1.0625l-0.9375 0l0 1.0625zm1.9375 0l0.9375 0l0 -1.0625l-0.9375 0l0 1.0625zm1.921875 -2.0l0 5.046875l-1.921875 0l0 1.046875l2.390625 0l0 1.125l-2.390625 0l0 2.640625l-1.0 0l0 -2.640625l-2.578125 0l0 -1.125l2.578125 0l0 -1.046875l-1.0 0l-0.9375 0l0 -5.046875l1.9375 0l0 -0.984375l-2.234375 0l0 -1.125l2.234375 0l0 -1.40625l0.9375 0q0.46875 0.0625 0.0625 0.359375l0 1.046875l2.34375 0l0 1.125l-2.34375 0l0 0.984375l1.921875 0zm14.421875 7.859375l-2.640625 0l0 1.234375l-1.0 0l0 -5.390625q-0.40625 0.75 -0.8125 1.21875l-0.703125 -1.21875q1.984375 -2.296875 2.21875 -5.390625l-1.578125 0l0 -1.125l4.921875 0l0 1.125l-2.28125 0q-0.171875 1.875 -0.59375 3.15625l2.46875 0l0 6.390625zm-2.640625 -1.109375l1.640625 0l0 -4.171875l-1.640625 0l0 4.171875zm2.703125 2.046875q0.515625 -1.46875 0.75 -2.984375l0.9375 0.171875q-0.046875 1.28125 -0.640625 3.21875l-1.046875 -0.40625zm3.28125 -2.984375q0.28125 1.171875 0.234375 2.578125l-1.171875 0.234375q0.109375 -1.40625 -0.0625 -2.765625l1.0 -0.046875zm1.453125 -0.1875q0.421875 1.171875 0.53125 2.40625l-1.109375 0.234375q-0.0625 -1.34375 -0.359375 -2.515625l0.9375 -0.125zm1.125 2.296875q-0.125 -1.234375 -0.46875 -2.40625l0.984375 -0.125q0.421875 1.0625 0.59375 2.171875l-1.109375 0.359375zm-1.640625 -9.90625l-2.0 0l0 1.234375l2.0 0l0 -1.234375zm-2.0 4.390625l0 1.40625l2.0 0l0 -1.40625l-2.0 0zm2.0 -2.21875l-2.0 0l0 1.28125l2.0 0l0 -1.28125zm4.15625 7.671875q-0.0625 1.875 -1.296875 1.875l-1.40625 0l-0.046875 -1.109375l0.875 0q0.8125 0 0.8125 -0.890625l0.0625 -2.8125l-5.15625 0l0 0.234375l-1.171875 0l0 -8.25l7.15625 0l0 1.109375l-3.0 0l0 1.234375l2.171875 0l0 0.9375l-2.171875 0l0 1.28125l2.234375 0l0 0.9375l-2.234375 0l0 1.40625l3.28125 0l-0.109375 4.046875zm14.46875 2.046875q-4.09375 -0.28125 -6.09375 -3.8125l-1.34375 0l0 2.40625l2.6875 -0.40625l0.1875 0.828125l-5.21875 0.984375q-0.0625 0.421875 -0.296875 0.1875l-0.34375 -1.296875l1.8125 -0.171875l0 -2.53125l-2.0 0q-0.046875 1.703125 -1.453125 3.640625l-0.828125 -0.703125q1.296875 -1.578125 1.296875 -3.453125l0 -3.40625l11.484375 0l0 0.9375l-10.5 0l0 2.046875l10.78125 0l0 0.9375l-5.203125 0q0.578125 0.9375 1.21875 1.359375l1.9375 -1.234375l0.765625 0.765625q0.0625 0.28125 -0.296875 0.171875l-1.578125 0.8125q0.703125 0.59375 3.515625 0.890625l-0.53125 1.046875zm-1.515625 -5.453125l-7.921875 0l0 -0.703125l7.921875 0l0 0.703125zm-8.625 -3.75l2.0 0l0 -0.984375l-2.0 0l0 0.984375zm0 -1.6875l2.0 0l0 -1.0l-2.0 0l0 1.0zm3.0 0l1.875 0l0 -1.0l-1.875 0l0 1.0zm0 1.6875l1.875 0l0 -0.984375l-1.875 0l0 0.984375zm2.859375 0l2.0625 0l0 -0.984375l-2.0625 0l0 0.984375zm0 -1.6875l2.0625 0l0 -1.0l-2.0625 0l0 1.0zm-6.84375 2.390625l0 -4.09375l2.984375 0l0 -1.0625l0.9375 0q0.46875 0.0625 0.0625 0.359375l0 0.703125l1.875 0l0 -1.0625l0.9375 0q0.46875 0.0625 0.046875 0.359375l0 0.703125l3.046875 0l0 4.09375l-9.890625 0z" fill-rule="nonzero"/><path fill="#ffffff" d="m153.07874 267.00787l127.24411 0l0 34.456696l-127.24411 0z" fill-rule="evenodd"/><path stroke="#000000" stroke-width="1.0" stroke-linejoin="round" stroke-linecap="butt" d="m153.07874 267.00787l127.24411 0l0 34.456696l-127.24411 0z" fill-rule="evenodd"/><path fill="#000000" d="m171.40392 277.12872l1.125 0q0.46875 0.0625 0.046875 0.34375l0 1.171875l5.34375 0l0 1.125l-5.34375 0l0 1.171875l3.515625 0l0 7.265625l-1.171875 0l0 -0.46875l-4.734375 0l0 0.578125l-1.171875 0l0 -7.375l2.390625 0l0 -1.171875l-6.140625 0l0 -1.125l6.140625 0l0 -1.515625zm3.515625 4.75l-4.734375 0l0 0.984375l4.734375 0l0 -0.984375zm0 3.796875l-4.734375 0l0 1.125l4.734375 0l0 -1.125zm0 -1.875l-4.734375 0l0 0.9375l4.734375 0l0 -0.9375zm-8.71875 -2.859375l1.109375 0q0.46875 0.046875 0.0625 0.34375l0 7.671875l10.953125 0l0 1.125l-10.953125 0l0 0.578125l-1.171875 0l0 -9.71875zm22.546875 2.28125l0.46875 0.171875q0.234375 0.234375 -0.171875 0.296875l-0.53125 1.046875l4.453125 0l0 1.125l-1.515625 0q-0.46875 1.515625 -1.109375 2.28125q1.453125 0.53125 2.75 1.296875l-0.703125 1.046875q-1.9375 -1.046875 -2.875 -1.46875q-1.9375 1.296875 -4.515625 1.703125l-0.40625 -1.046875q2.46875 -0.296875 3.75 -1.1875l-1.515625 -0.640625l-0.359375 0.53125l-0.9375 -0.46875l1.171875 -2.046875l-1.75 0l0 -1.125l2.34375 0l0.703125 -1.515625l-3.578125 0l0 -1.109375l2.40625 0l-0.65625 -2.109375l-0.875 0l0 -1.125l2.875 0l0 -1.640625l1.109375 0q0.46875 0.0625 0.0625 0.359375l0 1.28125l3.28125 0l0 1.125l-1.234375 0l-0.640625 2.109375l2.6875 0l0 1.109375l-4.6875 0zm0.53125 4.515625q0.59375 -0.65625 0.9375 -1.875l-2.21875 0l-0.703125 1.171875l1.984375 0.703125zm-1.234375 -5.625l1.53125 0l0.578125 -2.109375l-2.75 0l0.640625 2.109375zm-6.265625 -4.875l1.109375 0q0.46875 0.0625 0.0625 0.359375l0 2.28125l1.640625 0l0 1.109375l-1.640625 0l0 3.046875l1.234375 -0.40625l0.40625 1.0l-1.640625 0.640625l0 4.640625q0 0.8125 -0.8125 0.8125l-1.125 0l-0.171875 -1.109375l0.703125 0q0.234375 0 0.234375 -0.234375l0 -3.703125l-1.0 0.296875q-0.046875 0.40625 -0.28125 0.171875l-0.46875 -1.28125l1.75 -0.46875l0 -3.40625l-1.578125 0l0 -1.109375l1.578125 0l0 -2.640625zm24.96875 11.484375q0.28125 0 0.28125 -0.28125l0.0625 -1.359375l1.171875 0.59375l-0.0625 1.234375q-0.046875 1.34375 -1.109375 1.34375q-1.515625 0 -3.109375 -2.46875q-1.40625 1.359375 -3.6875 2.640625l-0.703125 -1.28125q2.28125 -1.0625 3.8125 -2.578125q-0.640625 -1.875 -0.765625 -4.453125l-2.28125 0.046875l0 -0.8125l-1.875 0l0 2.875l1.984375 -0.46875l0 1.046875l-1.984375 0.59375l0 4.15625q0 0.9375 -0.765625 0.9375l-1.28125 0l-0.1875 -1.109375l0.828125 0q0.234375 0 0.234375 -0.234375l0 -3.515625l-1.703125 0.46875q-0.234375 0.578125 -0.46875 0l-0.234375 -1.234375l2.40625 -0.46875l0 -3.046875l-2.234375 0l0 -1.109375l2.234375 0l0 -3.0l1.109375 0q0.46875 0.0625 0.0625 0.359375l0 2.640625l1.9375 0l0 0.8125l2.109375 -0.0625q-0.0625 -1.8125 -0.0625 -3.5625l1.28125 0q0.59375 0 0.0625 0.46875q0 1.453125 0.0625 2.984375l4.453125 -0.171875l0 1.109375l-4.390625 0.171875q0.109375 1.9375 0.46875 3.40625q0.875 -1.0625 1.515625 -2.46875l1.0625 0.765625q0.46875 0.296875 -0.1875 0.34375q-0.875 1.40625 -1.875 2.703125q1.0625 1.984375 1.828125 1.984375zm-0.59375 -8.546875q-0.640625 -0.9375 -1.40625 -1.640625l1.0 -0.703125q0.8125 0.703125 1.40625 1.578125l-1.0 0.765625zm14.234375 5.734375l0.9375 0.703125l-0.28125 0.828125q-0.296875 0.875 -0.9375 0.875q-0.46875 0 -0.9375 -0.46875q-0.53125 -0.53125 -0.703125 -0.9375q-0.828125 1.0 -2.234375 1.765625l-0.703125 -0.890625q1.53125 -0.8125 2.40625 -1.875q-0.765625 -2.390625 -0.765625 -4.390625l-5.15625 0l0 -0.9375l5.09375 0l0 -1.515625l0.9375 0q0.46875 0.046875 0.0625 0.34375l0 1.171875l1.703125 0q-0.53125 -0.53125 -1.0625 -0.875l0.59375 -0.703125q0.765625 0.40625 1.234375 0.9375l-0.46875 0.640625l1.28125 0l0 0.9375l-3.21875 0q0.0625 1.875 0.53125 3.40625q0.578125 -1.0625 1.046875 -2.703125l0.875 0.234375q0.65625 0.171875 0.0625 0.359375q-0.40625 1.40625 -1.515625 3.21875q0.28125 0.53125 0.46875 0.703125q0.171875 0.171875 0.28125 0.171875q0.234375 0 0.296875 -0.296875l0.171875 -0.703125zm-3.515625 -0.234375l0 0.9375l-4.328125 0.703125q-0.296875 0.53125 -0.359375 -0.046875l-0.109375 -0.890625l4.796875 -0.703125zm-0.40625 -3.390625l0 3.109375l-3.625 0l0 -3.109375l3.625 0zm-1.0 0.9375l-1.640625 0l0 1.234375l1.640625 0l0 -1.234375zm-5.15625 7.4375l0 -13.0625l12.65625 0l0 13.015625l-1.171875 0l0 -0.65625l-10.3125 0l0 0.703125l-1.171875 0zm1.171875 -1.8125l10.3125 0l0 -10.140625l-10.3125 0l0 10.140625zm14.1875 0.234375q1.9375 -1.234375 3.390625 -3.875q-1.171875 -1.046875 -1.921875 -1.515625q-0.421875 1.0 -1.125 1.8125l-1.046875 -0.765625q1.9375 -2.390625 2.515625 -6.4375l1.234375 0.34375q0.296875 0.234375 -0.125 0.421875l-0.234375 1.109375l2.234375 0l0.234375 -0.234375l0.8125 0.703125q0.1875 0.171875 -0.109375 0.34375q-0.875 6.21875 -5.09375 9.15625l-0.765625 -1.0625zm11.78125 -2.46875q-1.703125 -1.171875 -2.53125 -1.921875l0 5.6875l-1.171875 0l0 -6.859375q-1.109375 -1.40625 -1.984375 -2.9375l0.9375 -0.703125q0.53125 0.9375 1.046875 1.640625l0 -4.046875l1.125 0q0.46875 0.0625 0.046875 0.359375l0 5.03125q0.421875 0.828125 3.40625 2.578125l-0.875 1.171875zm-7.921875 -2.578125q0.53125 -1.34375 0.765625 -2.75l-2.21875 0l-0.46875 1.296875q0.75 0.46875 1.921875 1.453125zm16.40625 3.640625l0 -7.265625l-4.625 0l0 -1.296875l10.609375 0l0 1.296875l-4.625 0l0 7.265625l5.734375 0l0 1.28125l-12.765625 0l0 -1.28125l5.671875 0zm22.156235 -7.90625l0 1.109375l-4.21875 0l0 2.171875l3.6875 0l0 1.109375l-3.6875 0l0 1.9375l3.921875 0l0 1.109375l-3.921875 0l0 3.28125l-1.171875 0l0 -9.609375l-0.59375 0q-0.9375 1.984375 -1.984375 3.046875l-1.109375 -0.828125q2.34375 -2.453125 2.921875 -5.796875l1.234375 0.359375q0.34375 0.171875 -0.0625 0.28125q-0.109375 0.59375 -0.578125 1.828125l5.5625 0zm-13.124985 4.09375q2.5781097 -2.984375 3.3906097 -6.4375l1.296875 0.40625q0.34375 0.234375 -0.0625 0.296875q-0.40625 1.34375 -1.171875 2.921875l0.359375 0.125q0.234375 0.234375 -0.1875 0.28125l0 9.03125l-1.171875 0l0 -7.625q-0.640625 1.0625 -1.5156097 2.0l-0.9375 -1.0z" fill-rule="nonzero"/><path fill="#ffffff" d="m168.46194 339.00787l96.0 0l0 34.456696l-96.0 0z" fill-rule="evenodd"/><path stroke="#000000" stroke-width="1.0" stroke-linejoin="round" stroke-linecap="butt" d="m168.46194 339.00787l96.0 0l0 34.456696l-96.0 0z" fill-rule="evenodd"/><path fill="#000000" d="m204.8057 350.70685q0.46875 0.0625 0.0625 0.359375l0 3.15625l3.453125 0l0 -4.6875l1.109375 0q0.46875 0.0625 0.0625 0.359375l0 4.328125l3.390625 0l0 -3.453125l1.125 0q0.46875 0.0625 0.046875 0.34375l0 4.75l-1.171875 0l0 -0.53125l-3.390625 0l0 5.046875l3.859375 0l0 -3.578125l1.125 0q0.46875 0.0625 0.046875 0.359375l0 4.984375l-1.171875 0l0 -0.65625l-9.078125 0l0 0.828125l-1.171875 0l0 -5.578125l1.109375 0q0.46875 0.0625 0.0625 0.359375l0 3.28125l4.046875 0l0 -5.046875l-3.453125 0l0 0.65625l-1.171875 0l0 -5.28125l1.109375 0zm22.84375 7.203125l0.9375 0.703125l-0.28125 0.828125q-0.296875 0.875 -0.9375 0.875q-0.46875 0 -0.9375 -0.46875q-0.53125 -0.53125 -0.703125 -0.9375q-0.828125 1.0 -2.234375 1.765625l-0.703125 -0.890625q1.53125 -0.8125 2.40625 -1.875q-0.765625 -2.390625 -0.765625 -4.390625l-5.15625 0l0 -0.9375l5.09375 0l0 -1.515625l0.9375 0q0.46875 0.046875 0.0625 0.34375l0 1.171875l1.703125 0q-0.53125 -0.53125 -1.0625 -0.875l0.59375 -0.703125q0.765625 0.40625 1.234375 0.9375l-0.46875 0.640625l1.28125 0l0 0.9375l-3.21875 0q0.0625 1.875 0.53125 3.40625q0.578125 -1.0625 1.046875 -2.703125l0.875 0.234375q0.65625 0.171875 0.0625 0.359375q-0.40625 1.40625 -1.515625 3.21875q0.28125 0.53125 0.46875 0.703125q0.171875 0.171875 0.28125 0.171875q0.234375 0 0.296875 -0.296875l0.171875 -0.703125zm-3.515625 -0.234375l0 0.9375l-4.328125 0.703125q-0.296875 0.53125 -0.359375 -0.046875l-0.109375 -0.890625l4.796875 -0.703125zm-0.40625 -3.390625l0 3.109375l-3.625 0l0 -3.109375l3.625 0zm-1.0 0.9375l-1.640625 0l0 1.234375l1.640625 0l0 -1.234375zm-5.15625 7.4375l0 -13.0625l12.65625 0l0 13.015625l-1.171875 0l0 -0.65625l-10.3125 0l0 0.703125l-1.171875 0zm1.171875 -1.8125l10.3125 0l0 -10.140625l-10.3125 0l0 10.140625z" fill-rule="nonzero"/><path fill="#000000" fill-opacity="0.0" d="m124.902176 229.46423l0 90.52548l91.55905 0l0 19.017822" fill-rule="evenodd"/><path stroke="#000000" stroke-width="1.0" stroke-linejoin="round" stroke-linecap="butt" d="m124.90217 229.46423l0 90.52548l91.55906 0l0 13.017822" fill-rule="evenodd"/><path fill="#000000" stroke="#000000" stroke-width="1.0" stroke-linecap="butt" d="m214.8095 333.00754l1.6517334 4.5381165l1.6517334 -4.5381165z" fill-rule="evenodd"/><path fill="#000000" fill-opacity="0.0" d="m359.35956 301.46457l0 18.524994l-142.89764 0l0 19.01831" fill-rule="evenodd"/><path stroke="#000000" stroke-width="1.0" stroke-linejoin="round" stroke-linecap="butt" d="m359.35953 301.46457l0 18.524994l-142.8976 0l0 13.018311" fill-rule="evenodd"/><path fill="#000000" stroke="#000000" stroke-width="1.0" stroke-linecap="butt" d="m214.8102 333.00787l1.6517334 4.538086l1.6517181 -4.538086z" fill-rule="evenodd"/><path fill="#000000" fill-opacity="0.0" d="m216.70079 301.46457l-0.25196838 37.543304" fill-rule="evenodd"/><path stroke="#000000" stroke-width="1.0" stroke-linejoin="round" stroke-linecap="butt" d="m216.70079 301.46457l-0.25196838 37.543304" fill-rule="evenodd"/></g></svg>